<svg xmlns="http://www.w3.org/2000/svg" version="1.1" xmlns:xlink="http://www.w3.org/1999/xlink" xmlns:svgjs="http://svgjs.dev/svgjs" viewBox="0 0 800 800" opacity="0.49"><defs><linearGradient gradientTransform="rotate(270)" x1="50%" y1="0%" x2="50%" y2="100%" id="sssquiggly-grad"><stop stop-color="hsl(206, 75%, 49%)" stop-opacity="1" offset="0%"></stop><stop stop-color="hsl(331, 90%, 56%)" stop-opacity="1" offset="100%"></stop></linearGradient></defs><g stroke-width="2" stroke="url(#sssquiggly-grad)" fill="none" stroke-linecap="round" transform="matrix(1,0,0,1,-5,-366.58631324768066)"><path d="M10,10C23.06818181818182,15,44.507575757575765,41.5,72.72727272727273,34C100.9469696969697,26.5,115.15151515151517,-24.333333333333332,145.45454545454547,-26C175.75757575757575,-27.666666666666668,187.87878787878788,25.583333333333332,218.1818181818182,26C248.4848484848485,26.416666666666668,260.6060606060606,-23.583333333333332,290.90909090909093,-24C321.21212121212125,-24.416666666666668,333.33333333333337,24.208333333333332,363.6363636363637,24C393.939393939394,23.791666666666668,406.06060606060606,-28.125,436.3636363636364,-25C466.6666666666667,-21.875,478.7878787878788,35.25,509.0909090909091,39C539.3939393939395,42.75,551.5151515151515,-4.708333333333334,581.8181818181819,-7C612.1212121212122,-9.291666666666666,624.2424242424242,25.916666666666668,654.5454545454546,28C684.848484848485,30.083333333333332,696.969696969697,1.125,727.2727272727274,3C757.5757575757577,4.875,784.848484848485,29.916666666666664,800.0000000000001,37"></path><path d="M10,10C23.06818181818182,15,44.507575757575765,41.5,72.72727272727273,34C100.9469696969697,26.5,115.15151515151517,-24.333333333333332,145.45454545454547,-26C175.75757575757575,-27.666666666666668,187.87878787878788,25.583333333333332,218.1818181818182,26C248.4848484848485,26.416666666666668,260.6060606060606,-23.583333333333332,290.90909090909093,-24C321.21212121212125,-24.416666666666668,333.33333333333337,24.208333333333332,363.6363636363637,24C393.939393939394,23.791666666666668,406.06060606060606,-28.125,436.3636363636364,-25C466.6666666666667,-21.875,478.7878787878788,35.25,509.0909090909091,39C539.3939393939395,42.75,551.5151515151515,-4.708333333333334,581.8181818181819,-7C612.1212121212122,-9.291666666666666,624.2424242424242,25.916666666666668,654.5454545454546,28C684.848484848485,30.083333333333332,696.969696969697,1.125,727.2727272727274,3C757.5757575757577,4.875,784.848484848485,29.916666666666664,800.0000000000001,37" transform="matrix(1,0,0,1,0,1520)"></path><path d="M10,10C23.06818181818182,15,44.507575757575765,41.5,72.72727272727273,34C100.9469696969697,26.5,115.15151515151517,-24.333333333333332,145.45454545454547,-26C175.75757575757575,-27.666666666666668,187.87878787878788,25.583333333333332,218.1818181818182,26C248.4848484848485,26.416666666666668,260.6060606060606,-23.583333333333332,290.90909090909093,-24C321.21212121212125,-24.416666666666668,333.33333333333337,24.208333333333332,363.6363636363637,24C393.939393939394,23.791666666666668,406.06060606060606,-28.125,436.3636363636364,-25C466.6666666666667,-21.875,478.7878787878788,35.25,509.0909090909091,39C539.3939393939395,42.75,551.5151515151515,-4.708333333333334,581.8181818181819,-7C612.1212121212122,-9.291666666666666,624.2424242424242,25.916666666666668,654.5454545454546,28C684.848484848485,30.083333333333332,696.969696969697,1.125,727.2727272727274,3C757.5757575757577,4.875,784.848484848485,29.916666666666664,800.0000000000001,37" transform="matrix(1,0,0,1,0,1500)"></path><path d="M10,10C23.06818181818182,15,44.507575757575765,41.5,72.72727272727273,34C100.9469696969697,26.5,115.15151515151517,-24.333333333333332,145.45454545454547,-26C175.75757575757575,-27.666666666666668,187.87878787878788,25.583333333333332,218.1818181818182,26C248.4848484848485,26.416666666666668,260.6060606060606,-23.583333333333332,290.90909090909093,-24C321.21212121212125,-24.416666666666668,333.33333333333337,24.208333333333332,363.6363636363637,24C393.939393939394,23.791666666666668,406.06060606060606,-28.125,436.3636363636364,-25C466.6666666666667,-21.875,478.7878787878788,35.25,509.0909090909091,39C539.3939393939395,42.75,551.5151515151515,-4.708333333333334,581.8181818181819,-7C612.1212121212122,-9.291666666666666,624.2424242424242,25.916666666666668,654.5454545454546,28C684.848484848485,30.083333333333332,696.969696969697,1.125,727.2727272727274,3C757.5757575757577,4.875,784.848484848485,29.916666666666664,800.0000000000001,37" transform="matrix(1,0,0,1,0,1480)"></path><path d="M10,10C23.06818181818182,15,44.507575757575765,41.5,72.72727272727273,34C100.9469696969697,26.5,115.15151515151517,-24.333333333333332,145.45454545454547,-26C175.75757575757575,-27.666666666666668,187.87878787878788,25.583333333333332,218.1818181818182,26C248.4848484848485,26.416666666666668,260.6060606060606,-23.583333333333332,290.90909090909093,-24C321.21212121212125,-24.416666666666668,333.33333333333337,24.208333333333332,363.6363636363637,24C393.939393939394,23.791666666666668,406.06060606060606,-28.125,436.3636363636364,-25C466.6666666666667,-21.875,478.7878787878788,35.25,509.0909090909091,39C539.3939393939395,42.75,551.5151515151515,-4.708333333333334,581.8181818181819,-7C612.1212121212122,-9.291666666666666,624.2424242424242,25.916666666666668,654.5454545454546,28C684.848484848485,30.083333333333332,696.969696969697,1.125,727.2727272727274,3C757.5757575757577,4.875,784.848484848485,29.916666666666664,800.0000000000001,37" transform="matrix(1,0,0,1,0,1460)"></path><path d="M10,10C23.06818181818182,15,44.507575757575765,41.5,72.72727272727273,34C100.9469696969697,26.5,115.15151515151517,-24.333333333333332,145.45454545454547,-26C175.75757575757575,-27.666666666666668,187.87878787878788,25.583333333333332,218.1818181818182,26C248.4848484848485,26.416666666666668,260.6060606060606,-23.583333333333332,290.90909090909093,-24C321.21212121212125,-24.416666666666668,333.33333333333337,24.208333333333332,363.6363636363637,24C393.939393939394,23.791666666666668,406.06060606060606,-28.125,436.3636363636364,-25C466.6666666666667,-21.875,478.7878787878788,35.25,509.0909090909091,39C539.3939393939395,42.75,551.5151515151515,-4.708333333333334,581.8181818181819,-7C612.1212121212122,-9.291666666666666,624.2424242424242,25.916666666666668,654.5454545454546,28C684.848484848485,30.083333333333332,696.969696969697,1.125,727.2727272727274,3C757.5757575757577,4.875,784.848484848485,29.916666666666664,800.0000000000001,37" transform="matrix(1,0,0,1,0,1440)"></path><path d="M10,10C23.06818181818182,15,44.507575757575765,41.5,72.72727272727273,34C100.9469696969697,26.5,115.15151515151517,-24.333333333333332,145.45454545454547,-26C175.75757575757575,-27.666666666666668,187.87878787878788,25.583333333333332,218.1818181818182,26C248.4848484848485,26.416666666666668,260.6060606060606,-23.583333333333332,290.90909090909093,-24C321.21212121212125,-24.416666666666668,333.33333333333337,24.208333333333332,363.6363636363637,24C393.939393939394,23.791666666666668,406.06060606060606,-28.125,436.3636363636364,-25C466.6666666666667,-21.875,478.7878787878788,35.25,509.0909090909091,39C539.3939393939395,42.75,551.5151515151515,-4.708333333333334,581.8181818181819,-7C612.1212121212122,-9.291666666666666,624.2424242424242,25.916666666666668,654.5454545454546,28C684.848484848485,30.083333333333332,696.969696969697,1.125,727.2727272727274,3C757.5757575757577,4.875,784.848484848485,29.916666666666664,800.0000000000001,37" transform="matrix(1,0,0,1,0,1420)"></path><path d="M10,10C23.06818181818182,15,44.507575757575765,41.5,72.72727272727273,34C100.9469696969697,26.5,115.15151515151517,-24.333333333333332,145.45454545454547,-26C175.75757575757575,-27.666666666666668,187.87878787878788,25.583333333333332,218.1818181818182,26C248.4848484848485,26.416666666666668,260.6060606060606,-23.583333333333332,290.90909090909093,-24C321.21212121212125,-24.416666666666668,333.33333333333337,24.208333333333332,363.6363636363637,24C393.939393939394,23.791666666666668,406.06060606060606,-28.125,436.3636363636364,-25C466.6666666666667,-21.875,478.7878787878788,35.25,509.0909090909091,39C539.3939393939395,42.75,551.5151515151515,-4.708333333333334,581.8181818181819,-7C612.1212121212122,-9.291666666666666,624.2424242424242,25.916666666666668,654.5454545454546,28C684.848484848485,30.083333333333332,696.969696969697,1.125,727.2727272727274,3C757.5757575757577,4.875,784.848484848485,29.916666666666664,800.0000000000001,37" transform="matrix(1,0,0,1,0,1400)"></path><path d="M10,10C23.06818181818182,15,44.507575757575765,41.5,72.72727272727273,34C100.9469696969697,26.5,115.15151515151517,-24.333333333333332,145.45454545454547,-26C175.75757575757575,-27.666666666666668,187.87878787878788,25.583333333333332,218.1818181818182,26C248.4848484848485,26.416666666666668,260.6060606060606,-23.583333333333332,290.90909090909093,-24C321.21212121212125,-24.416666666666668,333.33333333333337,24.208333333333332,363.6363636363637,24C393.939393939394,23.791666666666668,406.06060606060606,-28.125,436.3636363636364,-25C466.6666666666667,-21.875,478.7878787878788,35.25,509.0909090909091,39C539.3939393939395,42.75,551.5151515151515,-4.708333333333334,581.8181818181819,-7C612.1212121212122,-9.291666666666666,624.2424242424242,25.916666666666668,654.5454545454546,28C684.848484848485,30.083333333333332,696.969696969697,1.125,727.2727272727274,3C757.5757575757577,4.875,784.848484848485,29.916666666666664,800.0000000000001,37" transform="matrix(1,0,0,1,0,1380)"></path><path d="M10,10C23.06818181818182,15,44.507575757575765,41.5,72.72727272727273,34C100.9469696969697,26.5,115.15151515151517,-24.333333333333332,145.45454545454547,-26C175.75757575757575,-27.666666666666668,187.87878787878788,25.583333333333332,218.1818181818182,26C248.4848484848485,26.416666666666668,260.6060606060606,-23.583333333333332,290.90909090909093,-24C321.21212121212125,-24.416666666666668,333.33333333333337,24.208333333333332,363.6363636363637,24C393.939393939394,23.791666666666668,406.06060606060606,-28.125,436.3636363636364,-25C466.6666666666667,-21.875,478.7878787878788,35.25,509.0909090909091,39C539.3939393939395,42.75,551.5151515151515,-4.708333333333334,581.8181818181819,-7C612.1212121212122,-9.291666666666666,624.2424242424242,25.916666666666668,654.5454545454546,28C684.848484848485,30.083333333333332,696.969696969697,1.125,727.2727272727274,3C757.5757575757577,4.875,784.848484848485,29.916666666666664,800.0000000000001,37" transform="matrix(1,0,0,1,0,1360)"></path><path d="M10,10C23.06818181818182,15,44.507575757575765,41.5,72.72727272727273,34C100.9469696969697,26.5,115.15151515151517,-24.333333333333332,145.45454545454547,-26C175.75757575757575,-27.666666666666668,187.87878787878788,25.583333333333332,218.1818181818182,26C248.4848484848485,26.416666666666668,260.6060606060606,-23.583333333333332,290.90909090909093,-24C321.21212121212125,-24.416666666666668,333.33333333333337,24.208333333333332,363.6363636363637,24C393.939393939394,23.791666666666668,406.06060606060606,-28.125,436.3636363636364,-25C466.6666666666667,-21.875,478.7878787878788,35.25,509.0909090909091,39C539.3939393939395,42.75,551.5151515151515,-4.708333333333334,581.8181818181819,-7C612.1212121212122,-9.291666666666666,624.2424242424242,25.916666666666668,654.5454545454546,28C684.848484848485,30.083333333333332,696.969696969697,1.125,727.2727272727274,3C757.5757575757577,4.875,784.848484848485,29.916666666666664,800.0000000000001,37" transform="matrix(1,0,0,1,0,1340)"></path><path d="M10,10C23.06818181818182,15,44.507575757575765,41.5,72.72727272727273,34C100.9469696969697,26.5,115.15151515151517,-24.333333333333332,145.45454545454547,-26C175.75757575757575,-27.666666666666668,187.87878787878788,25.583333333333332,218.1818181818182,26C248.4848484848485,26.416666666666668,260.6060606060606,-23.583333333333332,290.90909090909093,-24C321.21212121212125,-24.416666666666668,333.33333333333337,24.208333333333332,363.6363636363637,24C393.939393939394,23.791666666666668,406.06060606060606,-28.125,436.3636363636364,-25C466.6666666666667,-21.875,478.7878787878788,35.25,509.0909090909091,39C539.3939393939395,42.75,551.5151515151515,-4.708333333333334,581.8181818181819,-7C612.1212121212122,-9.291666666666666,624.2424242424242,25.916666666666668,654.5454545454546,28C684.848484848485,30.083333333333332,696.969696969697,1.125,727.2727272727274,3C757.5757575757577,4.875,784.848484848485,29.916666666666664,800.0000000000001,37" transform="matrix(1,0,0,1,0,1320)"></path><path d="M10,10C23.06818181818182,15,44.507575757575765,41.5,72.72727272727273,34C100.9469696969697,26.5,115.15151515151517,-24.333333333333332,145.45454545454547,-26C175.75757575757575,-27.666666666666668,187.87878787878788,25.583333333333332,218.1818181818182,26C248.4848484848485,26.416666666666668,260.6060606060606,-23.583333333333332,290.90909090909093,-24C321.21212121212125,-24.416666666666668,333.33333333333337,24.208333333333332,363.6363636363637,24C393.939393939394,23.791666666666668,406.06060606060606,-28.125,436.3636363636364,-25C466.6666666666667,-21.875,478.7878787878788,35.25,509.0909090909091,39C539.3939393939395,42.75,551.5151515151515,-4.708333333333334,581.8181818181819,-7C612.1212121212122,-9.291666666666666,624.2424242424242,25.916666666666668,654.5454545454546,28C684.848484848485,30.083333333333332,696.969696969697,1.125,727.2727272727274,3C757.5757575757577,4.875,784.848484848485,29.916666666666664,800.0000000000001,37" transform="matrix(1,0,0,1,0,1300)"></path><path d="M10,10C23.06818181818182,15,44.507575757575765,41.5,72.72727272727273,34C100.9469696969697,26.5,115.15151515151517,-24.333333333333332,145.45454545454547,-26C175.75757575757575,-27.666666666666668,187.87878787878788,25.583333333333332,218.1818181818182,26C248.4848484848485,26.416666666666668,260.6060606060606,-23.583333333333332,290.90909090909093,-24C321.21212121212125,-24.416666666666668,333.33333333333337,24.208333333333332,363.6363636363637,24C393.939393939394,23.791666666666668,406.06060606060606,-28.125,436.3636363636364,-25C466.6666666666667,-21.875,478.7878787878788,35.25,509.0909090909091,39C539.3939393939395,42.75,551.5151515151515,-4.708333333333334,581.8181818181819,-7C612.1212121212122,-9.291666666666666,624.2424242424242,25.916666666666668,654.5454545454546,28C684.848484848485,30.083333333333332,696.969696969697,1.125,727.2727272727274,3C757.5757575757577,4.875,784.848484848485,29.916666666666664,800.0000000000001,37" transform="matrix(1,0,0,1,0,1280)"></path><path d="M10,10C23.06818181818182,15,44.507575757575765,41.5,72.72727272727273,34C100.9469696969697,26.5,115.15151515151517,-24.333333333333332,145.45454545454547,-26C175.75757575757575,-27.666666666666668,187.87878787878788,25.583333333333332,218.1818181818182,26C248.4848484848485,26.416666666666668,260.6060606060606,-23.583333333333332,290.90909090909093,-24C321.21212121212125,-24.416666666666668,333.33333333333337,24.208333333333332,363.6363636363637,24C393.939393939394,23.791666666666668,406.06060606060606,-28.125,436.3636363636364,-25C466.6666666666667,-21.875,478.7878787878788,35.25,509.0909090909091,39C539.3939393939395,42.75,551.5151515151515,-4.708333333333334,581.8181818181819,-7C612.1212121212122,-9.291666666666666,624.2424242424242,25.916666666666668,654.5454545454546,28C684.848484848485,30.083333333333332,696.969696969697,1.125,727.2727272727274,3C757.5757575757577,4.875,784.848484848485,29.916666666666664,800.0000000000001,37" transform="matrix(1,0,0,1,0,1260)"></path><path d="M10,10C23.06818181818182,15,44.507575757575765,41.5,72.72727272727273,34C100.9469696969697,26.5,115.15151515151517,-24.333333333333332,145.45454545454547,-26C175.75757575757575,-27.666666666666668,187.87878787878788,25.583333333333332,218.1818181818182,26C248.4848484848485,26.416666666666668,260.6060606060606,-23.583333333333332,290.90909090909093,-24C321.21212121212125,-24.416666666666668,333.33333333333337,24.208333333333332,363.6363636363637,24C393.939393939394,23.791666666666668,406.06060606060606,-28.125,436.3636363636364,-25C466.6666666666667,-21.875,478.7878787878788,35.25,509.0909090909091,39C539.3939393939395,42.75,551.5151515151515,-4.708333333333334,581.8181818181819,-7C612.1212121212122,-9.291666666666666,624.2424242424242,25.916666666666668,654.5454545454546,28C684.848484848485,30.083333333333332,696.969696969697,1.125,727.2727272727274,3C757.5757575757577,4.875,784.848484848485,29.916666666666664,800.0000000000001,37" transform="matrix(1,0,0,1,0,1240)"></path><path d="M10,10C23.06818181818182,15,44.507575757575765,41.5,72.72727272727273,34C100.9469696969697,26.5,115.15151515151517,-24.333333333333332,145.45454545454547,-26C175.75757575757575,-27.666666666666668,187.87878787878788,25.583333333333332,218.1818181818182,26C248.4848484848485,26.416666666666668,260.6060606060606,-23.583333333333332,290.90909090909093,-24C321.21212121212125,-24.416666666666668,333.33333333333337,24.208333333333332,363.6363636363637,24C393.939393939394,23.791666666666668,406.06060606060606,-28.125,436.3636363636364,-25C466.6666666666667,-21.875,478.7878787878788,35.25,509.0909090909091,39C539.3939393939395,42.75,551.5151515151515,-4.708333333333334,581.8181818181819,-7C612.1212121212122,-9.291666666666666,624.2424242424242,25.916666666666668,654.5454545454546,28C684.848484848485,30.083333333333332,696.969696969697,1.125,727.2727272727274,3C757.5757575757577,4.875,784.848484848485,29.916666666666664,800.0000000000001,37" transform="matrix(1,0,0,1,0,1220)"></path><path d="M10,10C23.06818181818182,15,44.507575757575765,41.5,72.72727272727273,34C100.9469696969697,26.5,115.15151515151517,-24.333333333333332,145.45454545454547,-26C175.75757575757575,-27.666666666666668,187.87878787878788,25.583333333333332,218.1818181818182,26C248.4848484848485,26.416666666666668,260.6060606060606,-23.583333333333332,290.90909090909093,-24C321.21212121212125,-24.416666666666668,333.33333333333337,24.208333333333332,363.6363636363637,24C393.939393939394,23.791666666666668,406.06060606060606,-28.125,436.3636363636364,-25C466.6666666666667,-21.875,478.7878787878788,35.25,509.0909090909091,39C539.3939393939395,42.75,551.5151515151515,-4.708333333333334,581.8181818181819,-7C612.1212121212122,-9.291666666666666,624.2424242424242,25.916666666666668,654.5454545454546,28C684.848484848485,30.083333333333332,696.969696969697,1.125,727.2727272727274,3C757.5757575757577,4.875,784.848484848485,29.916666666666664,800.0000000000001,37" transform="matrix(1,0,0,1,0,1200)"></path><path d="M10,10C23.06818181818182,15,44.507575757575765,41.5,72.72727272727273,34C100.9469696969697,26.5,115.15151515151517,-24.333333333333332,145.45454545454547,-26C175.75757575757575,-27.666666666666668,187.87878787878788,25.583333333333332,218.1818181818182,26C248.4848484848485,26.416666666666668,260.6060606060606,-23.583333333333332,290.90909090909093,-24C321.21212121212125,-24.416666666666668,333.33333333333337,24.208333333333332,363.6363636363637,24C393.939393939394,23.791666666666668,406.06060606060606,-28.125,436.3636363636364,-25C466.6666666666667,-21.875,478.7878787878788,35.25,509.0909090909091,39C539.3939393939395,42.75,551.5151515151515,-4.708333333333334,581.8181818181819,-7C612.1212121212122,-9.291666666666666,624.2424242424242,25.916666666666668,654.5454545454546,28C684.848484848485,30.083333333333332,696.969696969697,1.125,727.2727272727274,3C757.5757575757577,4.875,784.848484848485,29.916666666666664,800.0000000000001,37" transform="matrix(1,0,0,1,0,1180)"></path><path d="M10,10C23.06818181818182,15,44.507575757575765,41.5,72.72727272727273,34C100.9469696969697,26.5,115.15151515151517,-24.333333333333332,145.45454545454547,-26C175.75757575757575,-27.666666666666668,187.87878787878788,25.583333333333332,218.1818181818182,26C248.4848484848485,26.416666666666668,260.6060606060606,-23.583333333333332,290.90909090909093,-24C321.21212121212125,-24.416666666666668,333.33333333333337,24.208333333333332,363.6363636363637,24C393.939393939394,23.791666666666668,406.06060606060606,-28.125,436.3636363636364,-25C466.6666666666667,-21.875,478.7878787878788,35.25,509.0909090909091,39C539.3939393939395,42.75,551.5151515151515,-4.708333333333334,581.8181818181819,-7C612.1212121212122,-9.291666666666666,624.2424242424242,25.916666666666668,654.5454545454546,28C684.848484848485,30.083333333333332,696.969696969697,1.125,727.2727272727274,3C757.5757575757577,4.875,784.848484848485,29.916666666666664,800.0000000000001,37" transform="matrix(1,0,0,1,0,1160)"></path><path d="M10,10C23.06818181818182,15,44.507575757575765,41.5,72.72727272727273,34C100.9469696969697,26.5,115.15151515151517,-24.333333333333332,145.45454545454547,-26C175.75757575757575,-27.666666666666668,187.87878787878788,25.583333333333332,218.1818181818182,26C248.4848484848485,26.416666666666668,260.6060606060606,-23.583333333333332,290.90909090909093,-24C321.21212121212125,-24.416666666666668,333.33333333333337,24.208333333333332,363.6363636363637,24C393.939393939394,23.791666666666668,406.06060606060606,-28.125,436.3636363636364,-25C466.6666666666667,-21.875,478.7878787878788,35.25,509.0909090909091,39C539.3939393939395,42.75,551.5151515151515,-4.708333333333334,581.8181818181819,-7C612.1212121212122,-9.291666666666666,624.2424242424242,25.916666666666668,654.5454545454546,28C684.848484848485,30.083333333333332,696.969696969697,1.125,727.2727272727274,3C757.5757575757577,4.875,784.848484848485,29.916666666666664,800.0000000000001,37" transform="matrix(1,0,0,1,0,1140)"></path><path d="M10,10C23.06818181818182,15,44.507575757575765,41.5,72.72727272727273,34C100.9469696969697,26.5,115.15151515151517,-24.333333333333332,145.45454545454547,-26C175.75757575757575,-27.666666666666668,187.87878787878788,25.583333333333332,218.1818181818182,26C248.4848484848485,26.416666666666668,260.6060606060606,-23.583333333333332,290.90909090909093,-24C321.21212121212125,-24.416666666666668,333.33333333333337,24.208333333333332,363.6363636363637,24C393.939393939394,23.791666666666668,406.06060606060606,-28.125,436.3636363636364,-25C466.6666666666667,-21.875,478.7878787878788,35.25,509.0909090909091,39C539.3939393939395,42.75,551.5151515151515,-4.708333333333334,581.8181818181819,-7C612.1212121212122,-9.291666666666666,624.2424242424242,25.916666666666668,654.5454545454546,28C684.848484848485,30.083333333333332,696.969696969697,1.125,727.2727272727274,3C757.5757575757577,4.875,784.848484848485,29.916666666666664,800.0000000000001,37" transform="matrix(1,0,0,1,0,1120)"></path><path d="M10,10C23.06818181818182,15,44.507575757575765,41.5,72.72727272727273,34C100.9469696969697,26.5,115.15151515151517,-24.333333333333332,145.45454545454547,-26C175.75757575757575,-27.666666666666668,187.87878787878788,25.583333333333332,218.1818181818182,26C248.4848484848485,26.416666666666668,260.6060606060606,-23.583333333333332,290.90909090909093,-24C321.21212121212125,-24.416666666666668,333.33333333333337,24.208333333333332,363.6363636363637,24C393.939393939394,23.791666666666668,406.06060606060606,-28.125,436.3636363636364,-25C466.6666666666667,-21.875,478.7878787878788,35.25,509.0909090909091,39C539.3939393939395,42.75,551.5151515151515,-4.708333333333334,581.8181818181819,-7C612.1212121212122,-9.291666666666666,624.2424242424242,25.916666666666668,654.5454545454546,28C684.848484848485,30.083333333333332,696.969696969697,1.125,727.2727272727274,3C757.5757575757577,4.875,784.848484848485,29.916666666666664,800.0000000000001,37" transform="matrix(1,0,0,1,0,1100)"></path><path d="M10,10C23.06818181818182,15,44.507575757575765,41.5,72.72727272727273,34C100.9469696969697,26.5,115.15151515151517,-24.333333333333332,145.45454545454547,-26C175.75757575757575,-27.666666666666668,187.87878787878788,25.583333333333332,218.1818181818182,26C248.4848484848485,26.416666666666668,260.6060606060606,-23.583333333333332,290.90909090909093,-24C321.21212121212125,-24.416666666666668,333.33333333333337,24.208333333333332,363.6363636363637,24C393.939393939394,23.791666666666668,406.06060606060606,-28.125,436.3636363636364,-25C466.6666666666667,-21.875,478.7878787878788,35.25,509.0909090909091,39C539.3939393939395,42.75,551.5151515151515,-4.708333333333334,581.8181818181819,-7C612.1212121212122,-9.291666666666666,624.2424242424242,25.916666666666668,654.5454545454546,28C684.848484848485,30.083333333333332,696.969696969697,1.125,727.2727272727274,3C757.5757575757577,4.875,784.848484848485,29.916666666666664,800.0000000000001,37" transform="matrix(1,0,0,1,0,1080)"></path><path d="M10,10C23.06818181818182,15,44.507575757575765,41.5,72.72727272727273,34C100.9469696969697,26.5,115.15151515151517,-24.333333333333332,145.45454545454547,-26C175.75757575757575,-27.666666666666668,187.87878787878788,25.583333333333332,218.1818181818182,26C248.4848484848485,26.416666666666668,260.6060606060606,-23.583333333333332,290.90909090909093,-24C321.21212121212125,-24.416666666666668,333.33333333333337,24.208333333333332,363.6363636363637,24C393.939393939394,23.791666666666668,406.06060606060606,-28.125,436.3636363636364,-25C466.6666666666667,-21.875,478.7878787878788,35.25,509.0909090909091,39C539.3939393939395,42.75,551.5151515151515,-4.708333333333334,581.8181818181819,-7C612.1212121212122,-9.291666666666666,624.2424242424242,25.916666666666668,654.5454545454546,28C684.848484848485,30.083333333333332,696.969696969697,1.125,727.2727272727274,3C757.5757575757577,4.875,784.848484848485,29.916666666666664,800.0000000000001,37" transform="matrix(1,0,0,1,0,1060)"></path><path d="M10,10C23.06818181818182,15,44.507575757575765,41.5,72.72727272727273,34C100.9469696969697,26.5,115.15151515151517,-24.333333333333332,145.45454545454547,-26C175.75757575757575,-27.666666666666668,187.87878787878788,25.583333333333332,218.1818181818182,26C248.4848484848485,26.416666666666668,260.6060606060606,-23.583333333333332,290.90909090909093,-24C321.21212121212125,-24.416666666666668,333.33333333333337,24.208333333333332,363.6363636363637,24C393.939393939394,23.791666666666668,406.06060606060606,-28.125,436.3636363636364,-25C466.6666666666667,-21.875,478.7878787878788,35.25,509.0909090909091,39C539.3939393939395,42.75,551.5151515151515,-4.708333333333334,581.8181818181819,-7C612.1212121212122,-9.291666666666666,624.2424242424242,25.916666666666668,654.5454545454546,28C684.848484848485,30.083333333333332,696.969696969697,1.125,727.2727272727274,3C757.5757575757577,4.875,784.848484848485,29.916666666666664,800.0000000000001,37" transform="matrix(1,0,0,1,0,1040)"></path><path d="M10,10C23.06818181818182,15,44.507575757575765,41.5,72.72727272727273,34C100.9469696969697,26.5,115.15151515151517,-24.333333333333332,145.45454545454547,-26C175.75757575757575,-27.666666666666668,187.87878787878788,25.583333333333332,218.1818181818182,26C248.4848484848485,26.416666666666668,260.6060606060606,-23.583333333333332,290.90909090909093,-24C321.21212121212125,-24.416666666666668,333.33333333333337,24.208333333333332,363.6363636363637,24C393.939393939394,23.791666666666668,406.06060606060606,-28.125,436.3636363636364,-25C466.6666666666667,-21.875,478.7878787878788,35.25,509.0909090909091,39C539.3939393939395,42.75,551.5151515151515,-4.708333333333334,581.8181818181819,-7C612.1212121212122,-9.291666666666666,624.2424242424242,25.916666666666668,654.5454545454546,28C684.848484848485,30.083333333333332,696.969696969697,1.125,727.2727272727274,3C757.5757575757577,4.875,784.848484848485,29.916666666666664,800.0000000000001,37" transform="matrix(1,0,0,1,0,1020)"></path><path d="M10,10C23.06818181818182,15,44.507575757575765,41.5,72.72727272727273,34C100.9469696969697,26.5,115.15151515151517,-24.333333333333332,145.45454545454547,-26C175.75757575757575,-27.666666666666668,187.87878787878788,25.583333333333332,218.1818181818182,26C248.4848484848485,26.416666666666668,260.6060606060606,-23.583333333333332,290.90909090909093,-24C321.21212121212125,-24.416666666666668,333.33333333333337,24.208333333333332,363.6363636363637,24C393.939393939394,23.791666666666668,406.06060606060606,-28.125,436.3636363636364,-25C466.6666666666667,-21.875,478.7878787878788,35.25,509.0909090909091,39C539.3939393939395,42.75,551.5151515151515,-4.708333333333334,581.8181818181819,-7C612.1212121212122,-9.291666666666666,624.2424242424242,25.916666666666668,654.5454545454546,28C684.848484848485,30.083333333333332,696.969696969697,1.125,727.2727272727274,3C757.5757575757577,4.875,784.848484848485,29.916666666666664,800.0000000000001,37" transform="matrix(1,0,0,1,0,1000)"></path><path d="M10,10C23.06818181818182,15,44.507575757575765,41.5,72.72727272727273,34C100.9469696969697,26.5,115.15151515151517,-24.333333333333332,145.45454545454547,-26C175.75757575757575,-27.666666666666668,187.87878787878788,25.583333333333332,218.1818181818182,26C248.4848484848485,26.416666666666668,260.6060606060606,-23.583333333333332,290.90909090909093,-24C321.21212121212125,-24.416666666666668,333.33333333333337,24.208333333333332,363.6363636363637,24C393.939393939394,23.791666666666668,406.06060606060606,-28.125,436.3636363636364,-25C466.6666666666667,-21.875,478.7878787878788,35.25,509.0909090909091,39C539.3939393939395,42.75,551.5151515151515,-4.708333333333334,581.8181818181819,-7C612.1212121212122,-9.291666666666666,624.2424242424242,25.916666666666668,654.5454545454546,28C684.848484848485,30.083333333333332,696.969696969697,1.125,727.2727272727274,3C757.5757575757577,4.875,784.848484848485,29.916666666666664,800.0000000000001,37" transform="matrix(1,0,0,1,0,980)"></path><path d="M10,10C23.06818181818182,15,44.507575757575765,41.5,72.72727272727273,34C100.9469696969697,26.5,115.15151515151517,-24.333333333333332,145.45454545454547,-26C175.75757575757575,-27.666666666666668,187.87878787878788,25.583333333333332,218.1818181818182,26C248.4848484848485,26.416666666666668,260.6060606060606,-23.583333333333332,290.90909090909093,-24C321.21212121212125,-24.416666666666668,333.33333333333337,24.208333333333332,363.6363636363637,24C393.939393939394,23.791666666666668,406.06060606060606,-28.125,436.3636363636364,-25C466.6666666666667,-21.875,478.7878787878788,35.25,509.0909090909091,39C539.3939393939395,42.75,551.5151515151515,-4.708333333333334,581.8181818181819,-7C612.1212121212122,-9.291666666666666,624.2424242424242,25.916666666666668,654.5454545454546,28C684.848484848485,30.083333333333332,696.969696969697,1.125,727.2727272727274,3C757.5757575757577,4.875,784.848484848485,29.916666666666664,800.0000000000001,37" transform="matrix(1,0,0,1,0,960)"></path><path d="M10,10C23.06818181818182,15,44.507575757575765,41.5,72.72727272727273,34C100.9469696969697,26.5,115.15151515151517,-24.333333333333332,145.45454545454547,-26C175.75757575757575,-27.666666666666668,187.87878787878788,25.583333333333332,218.1818181818182,26C248.4848484848485,26.416666666666668,260.6060606060606,-23.583333333333332,290.90909090909093,-24C321.21212121212125,-24.416666666666668,333.33333333333337,24.208333333333332,363.6363636363637,24C393.939393939394,23.791666666666668,406.06060606060606,-28.125,436.3636363636364,-25C466.6666666666667,-21.875,478.7878787878788,35.25,509.0909090909091,39C539.3939393939395,42.75,551.5151515151515,-4.708333333333334,581.8181818181819,-7C612.1212121212122,-9.291666666666666,624.2424242424242,25.916666666666668,654.5454545454546,28C684.848484848485,30.083333333333332,696.969696969697,1.125,727.2727272727274,3C757.5757575757577,4.875,784.848484848485,29.916666666666664,800.0000000000001,37" transform="matrix(1,0,0,1,0,940)"></path><path d="M10,10C23.06818181818182,15,44.507575757575765,41.5,72.72727272727273,34C100.9469696969697,26.5,115.15151515151517,-24.333333333333332,145.45454545454547,-26C175.75757575757575,-27.666666666666668,187.87878787878788,25.583333333333332,218.1818181818182,26C248.4848484848485,26.416666666666668,260.6060606060606,-23.583333333333332,290.90909090909093,-24C321.21212121212125,-24.416666666666668,333.33333333333337,24.208333333333332,363.6363636363637,24C393.939393939394,23.791666666666668,406.06060606060606,-28.125,436.3636363636364,-25C466.6666666666667,-21.875,478.7878787878788,35.25,509.0909090909091,39C539.3939393939395,42.75,551.5151515151515,-4.708333333333334,581.8181818181819,-7C612.1212121212122,-9.291666666666666,624.2424242424242,25.916666666666668,654.5454545454546,28C684.848484848485,30.083333333333332,696.969696969697,1.125,727.2727272727274,3C757.5757575757577,4.875,784.848484848485,29.916666666666664,800.0000000000001,37" transform="matrix(1,0,0,1,0,920)"></path><path d="M10,10C23.06818181818182,15,44.507575757575765,41.5,72.72727272727273,34C100.9469696969697,26.5,115.15151515151517,-24.333333333333332,145.45454545454547,-26C175.75757575757575,-27.666666666666668,187.87878787878788,25.583333333333332,218.1818181818182,26C248.4848484848485,26.416666666666668,260.6060606060606,-23.583333333333332,290.90909090909093,-24C321.21212121212125,-24.416666666666668,333.33333333333337,24.208333333333332,363.6363636363637,24C393.939393939394,23.791666666666668,406.06060606060606,-28.125,436.3636363636364,-25C466.6666666666667,-21.875,478.7878787878788,35.25,509.0909090909091,39C539.3939393939395,42.75,551.5151515151515,-4.708333333333334,581.8181818181819,-7C612.1212121212122,-9.291666666666666,624.2424242424242,25.916666666666668,654.5454545454546,28C684.848484848485,30.083333333333332,696.969696969697,1.125,727.2727272727274,3C757.5757575757577,4.875,784.848484848485,29.916666666666664,800.0000000000001,37" transform="matrix(1,0,0,1,0,900)"></path><path d="M10,10C23.06818181818182,15,44.507575757575765,41.5,72.72727272727273,34C100.9469696969697,26.5,115.15151515151517,-24.333333333333332,145.45454545454547,-26C175.75757575757575,-27.666666666666668,187.87878787878788,25.583333333333332,218.1818181818182,26C248.4848484848485,26.416666666666668,260.6060606060606,-23.583333333333332,290.90909090909093,-24C321.21212121212125,-24.416666666666668,333.33333333333337,24.208333333333332,363.6363636363637,24C393.939393939394,23.791666666666668,406.06060606060606,-28.125,436.3636363636364,-25C466.6666666666667,-21.875,478.7878787878788,35.25,509.0909090909091,39C539.3939393939395,42.75,551.5151515151515,-4.708333333333334,581.8181818181819,-7C612.1212121212122,-9.291666666666666,624.2424242424242,25.916666666666668,654.5454545454546,28C684.848484848485,30.083333333333332,696.969696969697,1.125,727.2727272727274,3C757.5757575757577,4.875,784.848484848485,29.916666666666664,800.0000000000001,37" transform="matrix(1,0,0,1,0,880)"></path><path d="M10,10C23.06818181818182,15,44.507575757575765,41.5,72.72727272727273,34C100.9469696969697,26.5,115.15151515151517,-24.333333333333332,145.45454545454547,-26C175.75757575757575,-27.666666666666668,187.87878787878788,25.583333333333332,218.1818181818182,26C248.4848484848485,26.416666666666668,260.6060606060606,-23.583333333333332,290.90909090909093,-24C321.21212121212125,-24.416666666666668,333.33333333333337,24.208333333333332,363.6363636363637,24C393.939393939394,23.791666666666668,406.06060606060606,-28.125,436.3636363636364,-25C466.6666666666667,-21.875,478.7878787878788,35.25,509.0909090909091,39C539.3939393939395,42.75,551.5151515151515,-4.708333333333334,581.8181818181819,-7C612.1212121212122,-9.291666666666666,624.2424242424242,25.916666666666668,654.5454545454546,28C684.848484848485,30.083333333333332,696.969696969697,1.125,727.2727272727274,3C757.5757575757577,4.875,784.848484848485,29.916666666666664,800.0000000000001,37" transform="matrix(1,0,0,1,0,860)"></path><path d="M10,10C23.06818181818182,15,44.507575757575765,41.5,72.72727272727273,34C100.9469696969697,26.5,115.15151515151517,-24.333333333333332,145.45454545454547,-26C175.75757575757575,-27.666666666666668,187.87878787878788,25.583333333333332,218.1818181818182,26C248.4848484848485,26.416666666666668,260.6060606060606,-23.583333333333332,290.90909090909093,-24C321.21212121212125,-24.416666666666668,333.33333333333337,24.208333333333332,363.6363636363637,24C393.939393939394,23.791666666666668,406.06060606060606,-28.125,436.3636363636364,-25C466.6666666666667,-21.875,478.7878787878788,35.25,509.0909090909091,39C539.3939393939395,42.75,551.5151515151515,-4.708333333333334,581.8181818181819,-7C612.1212121212122,-9.291666666666666,624.2424242424242,25.916666666666668,654.5454545454546,28C684.848484848485,30.083333333333332,696.969696969697,1.125,727.2727272727274,3C757.5757575757577,4.875,784.848484848485,29.916666666666664,800.0000000000001,37" transform="matrix(1,0,0,1,0,840)"></path><path d="M10,10C23.06818181818182,15,44.507575757575765,41.5,72.72727272727273,34C100.9469696969697,26.5,115.15151515151517,-24.333333333333332,145.45454545454547,-26C175.75757575757575,-27.666666666666668,187.87878787878788,25.583333333333332,218.1818181818182,26C248.4848484848485,26.416666666666668,260.6060606060606,-23.583333333333332,290.90909090909093,-24C321.21212121212125,-24.416666666666668,333.33333333333337,24.208333333333332,363.6363636363637,24C393.939393939394,23.791666666666668,406.06060606060606,-28.125,436.3636363636364,-25C466.6666666666667,-21.875,478.7878787878788,35.25,509.0909090909091,39C539.3939393939395,42.75,551.5151515151515,-4.708333333333334,581.8181818181819,-7C612.1212121212122,-9.291666666666666,624.2424242424242,25.916666666666668,654.5454545454546,28C684.848484848485,30.083333333333332,696.969696969697,1.125,727.2727272727274,3C757.5757575757577,4.875,784.848484848485,29.916666666666664,800.0000000000001,37" transform="matrix(1,0,0,1,0,820)"></path><path d="M10,10C23.06818181818182,15,44.507575757575765,41.5,72.72727272727273,34C100.9469696969697,26.5,115.15151515151517,-24.333333333333332,145.45454545454547,-26C175.75757575757575,-27.666666666666668,187.87878787878788,25.583333333333332,218.1818181818182,26C248.4848484848485,26.416666666666668,260.6060606060606,-23.583333333333332,290.90909090909093,-24C321.21212121212125,-24.416666666666668,333.33333333333337,24.208333333333332,363.6363636363637,24C393.939393939394,23.791666666666668,406.06060606060606,-28.125,436.3636363636364,-25C466.6666666666667,-21.875,478.7878787878788,35.25,509.0909090909091,39C539.3939393939395,42.75,551.5151515151515,-4.708333333333334,581.8181818181819,-7C612.1212121212122,-9.291666666666666,624.2424242424242,25.916666666666668,654.5454545454546,28C684.848484848485,30.083333333333332,696.969696969697,1.125,727.2727272727274,3C757.5757575757577,4.875,784.848484848485,29.916666666666664,800.0000000000001,37" transform="matrix(1,0,0,1,0,800)"></path><path d="M10,10C23.06818181818182,15,44.507575757575765,41.5,72.72727272727273,34C100.9469696969697,26.5,115.15151515151517,-24.333333333333332,145.45454545454547,-26C175.75757575757575,-27.666666666666668,187.87878787878788,25.583333333333332,218.1818181818182,26C248.4848484848485,26.416666666666668,260.6060606060606,-23.583333333333332,290.90909090909093,-24C321.21212121212125,-24.416666666666668,333.33333333333337,24.208333333333332,363.6363636363637,24C393.939393939394,23.791666666666668,406.06060606060606,-28.125,436.3636363636364,-25C466.6666666666667,-21.875,478.7878787878788,35.25,509.0909090909091,39C539.3939393939395,42.75,551.5151515151515,-4.708333333333334,581.8181818181819,-7C612.1212121212122,-9.291666666666666,624.2424242424242,25.916666666666668,654.5454545454546,28C684.848484848485,30.083333333333332,696.969696969697,1.125,727.2727272727274,3C757.5757575757577,4.875,784.848484848485,29.916666666666664,800.0000000000001,37" transform="matrix(1,0,0,1,0,780)"></path><path d="M10,10C23.06818181818182,15,44.507575757575765,41.5,72.72727272727273,34C100.9469696969697,26.5,115.15151515151517,-24.333333333333332,145.45454545454547,-26C175.75757575757575,-27.666666666666668,187.87878787878788,25.583333333333332,218.1818181818182,26C248.4848484848485,26.416666666666668,260.6060606060606,-23.583333333333332,290.90909090909093,-24C321.21212121212125,-24.416666666666668,333.33333333333337,24.208333333333332,363.6363636363637,24C393.939393939394,23.791666666666668,406.06060606060606,-28.125,436.3636363636364,-25C466.6666666666667,-21.875,478.7878787878788,35.25,509.0909090909091,39C539.3939393939395,42.75,551.5151515151515,-4.708333333333334,581.8181818181819,-7C612.1212121212122,-9.291666666666666,624.2424242424242,25.916666666666668,654.5454545454546,28C684.848484848485,30.083333333333332,696.969696969697,1.125,727.2727272727274,3C757.5757575757577,4.875,784.848484848485,29.916666666666664,800.0000000000001,37" transform="matrix(1,0,0,1,0,760)"></path><path d="M10,10C23.06818181818182,15,44.507575757575765,41.5,72.72727272727273,34C100.9469696969697,26.5,115.15151515151517,-24.333333333333332,145.45454545454547,-26C175.75757575757575,-27.666666666666668,187.87878787878788,25.583333333333332,218.1818181818182,26C248.4848484848485,26.416666666666668,260.6060606060606,-23.583333333333332,290.90909090909093,-24C321.21212121212125,-24.416666666666668,333.33333333333337,24.208333333333332,363.6363636363637,24C393.939393939394,23.791666666666668,406.06060606060606,-28.125,436.3636363636364,-25C466.6666666666667,-21.875,478.7878787878788,35.25,509.0909090909091,39C539.3939393939395,42.75,551.5151515151515,-4.708333333333334,581.8181818181819,-7C612.1212121212122,-9.291666666666666,624.2424242424242,25.916666666666668,654.5454545454546,28C684.848484848485,30.083333333333332,696.969696969697,1.125,727.2727272727274,3C757.5757575757577,4.875,784.848484848485,29.916666666666664,800.0000000000001,37" transform="matrix(1,0,0,1,0,740)"></path><path d="M10,10C23.06818181818182,15,44.507575757575765,41.5,72.72727272727273,34C100.9469696969697,26.5,115.15151515151517,-24.333333333333332,145.45454545454547,-26C175.75757575757575,-27.666666666666668,187.87878787878788,25.583333333333332,218.1818181818182,26C248.4848484848485,26.416666666666668,260.6060606060606,-23.583333333333332,290.90909090909093,-24C321.21212121212125,-24.416666666666668,333.33333333333337,24.208333333333332,363.6363636363637,24C393.939393939394,23.791666666666668,406.06060606060606,-28.125,436.3636363636364,-25C466.6666666666667,-21.875,478.7878787878788,35.25,509.0909090909091,39C539.3939393939395,42.75,551.5151515151515,-4.708333333333334,581.8181818181819,-7C612.1212121212122,-9.291666666666666,624.2424242424242,25.916666666666668,654.5454545454546,28C684.848484848485,30.083333333333332,696.969696969697,1.125,727.2727272727274,3C757.5757575757577,4.875,784.848484848485,29.916666666666664,800.0000000000001,37" transform="matrix(1,0,0,1,0,720)"></path><path d="M10,10C23.06818181818182,15,44.507575757575765,41.5,72.72727272727273,34C100.9469696969697,26.5,115.15151515151517,-24.333333333333332,145.45454545454547,-26C175.75757575757575,-27.666666666666668,187.87878787878788,25.583333333333332,218.1818181818182,26C248.4848484848485,26.416666666666668,260.6060606060606,-23.583333333333332,290.90909090909093,-24C321.21212121212125,-24.416666666666668,333.33333333333337,24.208333333333332,363.6363636363637,24C393.939393939394,23.791666666666668,406.06060606060606,-28.125,436.3636363636364,-25C466.6666666666667,-21.875,478.7878787878788,35.25,509.0909090909091,39C539.3939393939395,42.75,551.5151515151515,-4.708333333333334,581.8181818181819,-7C612.1212121212122,-9.291666666666666,624.2424242424242,25.916666666666668,654.5454545454546,28C684.848484848485,30.083333333333332,696.969696969697,1.125,727.2727272727274,3C757.5757575757577,4.875,784.848484848485,29.916666666666664,800.0000000000001,37" transform="matrix(1,0,0,1,0,700)"></path><path d="M10,10C23.06818181818182,15,44.507575757575765,41.5,72.72727272727273,34C100.9469696969697,26.5,115.15151515151517,-24.333333333333332,145.45454545454547,-26C175.75757575757575,-27.666666666666668,187.87878787878788,25.583333333333332,218.1818181818182,26C248.4848484848485,26.416666666666668,260.6060606060606,-23.583333333333332,290.90909090909093,-24C321.21212121212125,-24.416666666666668,333.33333333333337,24.208333333333332,363.6363636363637,24C393.939393939394,23.791666666666668,406.06060606060606,-28.125,436.3636363636364,-25C466.6666666666667,-21.875,478.7878787878788,35.25,509.0909090909091,39C539.3939393939395,42.75,551.5151515151515,-4.708333333333334,581.8181818181819,-7C612.1212121212122,-9.291666666666666,624.2424242424242,25.916666666666668,654.5454545454546,28C684.848484848485,30.083333333333332,696.969696969697,1.125,727.2727272727274,3C757.5757575757577,4.875,784.848484848485,29.916666666666664,800.0000000000001,37" transform="matrix(1,0,0,1,0,680)"></path><path d="M10,10C23.06818181818182,15,44.507575757575765,41.5,72.72727272727273,34C100.9469696969697,26.5,115.15151515151517,-24.333333333333332,145.45454545454547,-26C175.75757575757575,-27.666666666666668,187.87878787878788,25.583333333333332,218.1818181818182,26C248.4848484848485,26.416666666666668,260.6060606060606,-23.583333333333332,290.90909090909093,-24C321.21212121212125,-24.416666666666668,333.33333333333337,24.208333333333332,363.6363636363637,24C393.939393939394,23.791666666666668,406.06060606060606,-28.125,436.3636363636364,-25C466.6666666666667,-21.875,478.7878787878788,35.25,509.0909090909091,39C539.3939393939395,42.75,551.5151515151515,-4.708333333333334,581.8181818181819,-7C612.1212121212122,-9.291666666666666,624.2424242424242,25.916666666666668,654.5454545454546,28C684.848484848485,30.083333333333332,696.969696969697,1.125,727.2727272727274,3C757.5757575757577,4.875,784.848484848485,29.916666666666664,800.0000000000001,37" transform="matrix(1,0,0,1,0,660)"></path><path d="M10,10C23.06818181818182,15,44.507575757575765,41.5,72.72727272727273,34C100.9469696969697,26.5,115.15151515151517,-24.333333333333332,145.45454545454547,-26C175.75757575757575,-27.666666666666668,187.87878787878788,25.583333333333332,218.1818181818182,26C248.4848484848485,26.416666666666668,260.6060606060606,-23.583333333333332,290.90909090909093,-24C321.21212121212125,-24.416666666666668,333.33333333333337,24.208333333333332,363.6363636363637,24C393.939393939394,23.791666666666668,406.06060606060606,-28.125,436.3636363636364,-25C466.6666666666667,-21.875,478.7878787878788,35.25,509.0909090909091,39C539.3939393939395,42.75,551.5151515151515,-4.708333333333334,581.8181818181819,-7C612.1212121212122,-9.291666666666666,624.2424242424242,25.916666666666668,654.5454545454546,28C684.848484848485,30.083333333333332,696.969696969697,1.125,727.2727272727274,3C757.5757575757577,4.875,784.848484848485,29.916666666666664,800.0000000000001,37" transform="matrix(1,0,0,1,0,640)"></path><path d="M10,10C23.06818181818182,15,44.507575757575765,41.5,72.72727272727273,34C100.9469696969697,26.5,115.15151515151517,-24.333333333333332,145.45454545454547,-26C175.75757575757575,-27.666666666666668,187.87878787878788,25.583333333333332,218.1818181818182,26C248.4848484848485,26.416666666666668,260.6060606060606,-23.583333333333332,290.90909090909093,-24C321.21212121212125,-24.416666666666668,333.33333333333337,24.208333333333332,363.6363636363637,24C393.939393939394,23.791666666666668,406.06060606060606,-28.125,436.3636363636364,-25C466.6666666666667,-21.875,478.7878787878788,35.25,509.0909090909091,39C539.3939393939395,42.75,551.5151515151515,-4.708333333333334,581.8181818181819,-7C612.1212121212122,-9.291666666666666,624.2424242424242,25.916666666666668,654.5454545454546,28C684.848484848485,30.083333333333332,696.969696969697,1.125,727.2727272727274,3C757.5757575757577,4.875,784.848484848485,29.916666666666664,800.0000000000001,37" transform="matrix(1,0,0,1,0,620)"></path><path d="M10,10C23.06818181818182,15,44.507575757575765,41.5,72.72727272727273,34C100.9469696969697,26.5,115.15151515151517,-24.333333333333332,145.45454545454547,-26C175.75757575757575,-27.666666666666668,187.87878787878788,25.583333333333332,218.1818181818182,26C248.4848484848485,26.416666666666668,260.6060606060606,-23.583333333333332,290.90909090909093,-24C321.21212121212125,-24.416666666666668,333.33333333333337,24.208333333333332,363.6363636363637,24C393.939393939394,23.791666666666668,406.06060606060606,-28.125,436.3636363636364,-25C466.6666666666667,-21.875,478.7878787878788,35.25,509.0909090909091,39C539.3939393939395,42.75,551.5151515151515,-4.708333333333334,581.8181818181819,-7C612.1212121212122,-9.291666666666666,624.2424242424242,25.916666666666668,654.5454545454546,28C684.848484848485,30.083333333333332,696.969696969697,1.125,727.2727272727274,3C757.5757575757577,4.875,784.848484848485,29.916666666666664,800.0000000000001,37" transform="matrix(1,0,0,1,0,600)"></path><path d="M10,10C23.06818181818182,15,44.507575757575765,41.5,72.72727272727273,34C100.9469696969697,26.5,115.15151515151517,-24.333333333333332,145.45454545454547,-26C175.75757575757575,-27.666666666666668,187.87878787878788,25.583333333333332,218.1818181818182,26C248.4848484848485,26.416666666666668,260.6060606060606,-23.583333333333332,290.90909090909093,-24C321.21212121212125,-24.416666666666668,333.33333333333337,24.208333333333332,363.6363636363637,24C393.939393939394,23.791666666666668,406.06060606060606,-28.125,436.3636363636364,-25C466.6666666666667,-21.875,478.7878787878788,35.25,509.0909090909091,39C539.3939393939395,42.75,551.5151515151515,-4.708333333333334,581.8181818181819,-7C612.1212121212122,-9.291666666666666,624.2424242424242,25.916666666666668,654.5454545454546,28C684.848484848485,30.083333333333332,696.969696969697,1.125,727.2727272727274,3C757.5757575757577,4.875,784.848484848485,29.916666666666664,800.0000000000001,37" transform="matrix(1,0,0,1,0,580)"></path><path d="M10,10C23.06818181818182,15,44.507575757575765,41.5,72.72727272727273,34C100.9469696969697,26.5,115.15151515151517,-24.333333333333332,145.45454545454547,-26C175.75757575757575,-27.666666666666668,187.87878787878788,25.583333333333332,218.1818181818182,26C248.4848484848485,26.416666666666668,260.6060606060606,-23.583333333333332,290.90909090909093,-24C321.21212121212125,-24.416666666666668,333.33333333333337,24.208333333333332,363.6363636363637,24C393.939393939394,23.791666666666668,406.06060606060606,-28.125,436.3636363636364,-25C466.6666666666667,-21.875,478.7878787878788,35.25,509.0909090909091,39C539.3939393939395,42.75,551.5151515151515,-4.708333333333334,581.8181818181819,-7C612.1212121212122,-9.291666666666666,624.2424242424242,25.916666666666668,654.5454545454546,28C684.848484848485,30.083333333333332,696.969696969697,1.125,727.2727272727274,3C757.5757575757577,4.875,784.848484848485,29.916666666666664,800.0000000000001,37" transform="matrix(1,0,0,1,0,560)"></path><path d="M10,10C23.06818181818182,15,44.507575757575765,41.5,72.72727272727273,34C100.9469696969697,26.5,115.15151515151517,-24.333333333333332,145.45454545454547,-26C175.75757575757575,-27.666666666666668,187.87878787878788,25.583333333333332,218.1818181818182,26C248.4848484848485,26.416666666666668,260.6060606060606,-23.583333333333332,290.90909090909093,-24C321.21212121212125,-24.416666666666668,333.33333333333337,24.208333333333332,363.6363636363637,24C393.939393939394,23.791666666666668,406.06060606060606,-28.125,436.3636363636364,-25C466.6666666666667,-21.875,478.7878787878788,35.25,509.0909090909091,39C539.3939393939395,42.75,551.5151515151515,-4.708333333333334,581.8181818181819,-7C612.1212121212122,-9.291666666666666,624.2424242424242,25.916666666666668,654.5454545454546,28C684.848484848485,30.083333333333332,696.969696969697,1.125,727.2727272727274,3C757.5757575757577,4.875,784.848484848485,29.916666666666664,800.0000000000001,37" transform="matrix(1,0,0,1,0,540)"></path><path d="M10,10C23.06818181818182,15,44.507575757575765,41.5,72.72727272727273,34C100.9469696969697,26.5,115.15151515151517,-24.333333333333332,145.45454545454547,-26C175.75757575757575,-27.666666666666668,187.87878787878788,25.583333333333332,218.1818181818182,26C248.4848484848485,26.416666666666668,260.6060606060606,-23.583333333333332,290.90909090909093,-24C321.21212121212125,-24.416666666666668,333.33333333333337,24.208333333333332,363.6363636363637,24C393.939393939394,23.791666666666668,406.06060606060606,-28.125,436.3636363636364,-25C466.6666666666667,-21.875,478.7878787878788,35.25,509.0909090909091,39C539.3939393939395,42.75,551.5151515151515,-4.708333333333334,581.8181818181819,-7C612.1212121212122,-9.291666666666666,624.2424242424242,25.916666666666668,654.5454545454546,28C684.848484848485,30.083333333333332,696.969696969697,1.125,727.2727272727274,3C757.5757575757577,4.875,784.848484848485,29.916666666666664,800.0000000000001,37" transform="matrix(1,0,0,1,0,520)"></path><path d="M10,10C23.06818181818182,15,44.507575757575765,41.5,72.72727272727273,34C100.9469696969697,26.5,115.15151515151517,-24.333333333333332,145.45454545454547,-26C175.75757575757575,-27.666666666666668,187.87878787878788,25.583333333333332,218.1818181818182,26C248.4848484848485,26.416666666666668,260.6060606060606,-23.583333333333332,290.90909090909093,-24C321.21212121212125,-24.416666666666668,333.33333333333337,24.208333333333332,363.6363636363637,24C393.939393939394,23.791666666666668,406.06060606060606,-28.125,436.3636363636364,-25C466.6666666666667,-21.875,478.7878787878788,35.25,509.0909090909091,39C539.3939393939395,42.75,551.5151515151515,-4.708333333333334,581.8181818181819,-7C612.1212121212122,-9.291666666666666,624.2424242424242,25.916666666666668,654.5454545454546,28C684.848484848485,30.083333333333332,696.969696969697,1.125,727.2727272727274,3C757.5757575757577,4.875,784.848484848485,29.916666666666664,800.0000000000001,37" transform="matrix(1,0,0,1,0,500)"></path><path d="M10,10C23.06818181818182,15,44.507575757575765,41.5,72.72727272727273,34C100.9469696969697,26.5,115.15151515151517,-24.333333333333332,145.45454545454547,-26C175.75757575757575,-27.666666666666668,187.87878787878788,25.583333333333332,218.1818181818182,26C248.4848484848485,26.416666666666668,260.6060606060606,-23.583333333333332,290.90909090909093,-24C321.21212121212125,-24.416666666666668,333.33333333333337,24.208333333333332,363.6363636363637,24C393.939393939394,23.791666666666668,406.06060606060606,-28.125,436.3636363636364,-25C466.6666666666667,-21.875,478.7878787878788,35.25,509.0909090909091,39C539.3939393939395,42.75,551.5151515151515,-4.708333333333334,581.8181818181819,-7C612.1212121212122,-9.291666666666666,624.2424242424242,25.916666666666668,654.5454545454546,28C684.848484848485,30.083333333333332,696.969696969697,1.125,727.2727272727274,3C757.5757575757577,4.875,784.848484848485,29.916666666666664,800.0000000000001,37" transform="matrix(1,0,0,1,0,480)"></path><path d="M10,10C23.06818181818182,15,44.507575757575765,41.5,72.72727272727273,34C100.9469696969697,26.5,115.15151515151517,-24.333333333333332,145.45454545454547,-26C175.75757575757575,-27.666666666666668,187.87878787878788,25.583333333333332,218.1818181818182,26C248.4848484848485,26.416666666666668,260.6060606060606,-23.583333333333332,290.90909090909093,-24C321.21212121212125,-24.416666666666668,333.33333333333337,24.208333333333332,363.6363636363637,24C393.939393939394,23.791666666666668,406.06060606060606,-28.125,436.3636363636364,-25C466.6666666666667,-21.875,478.7878787878788,35.25,509.0909090909091,39C539.3939393939395,42.75,551.5151515151515,-4.708333333333334,581.8181818181819,-7C612.1212121212122,-9.291666666666666,624.2424242424242,25.916666666666668,654.5454545454546,28C684.848484848485,30.083333333333332,696.969696969697,1.125,727.2727272727274,3C757.5757575757577,4.875,784.848484848485,29.916666666666664,800.0000000000001,37" transform="matrix(1,0,0,1,0,460)"></path><path d="M10,10C23.06818181818182,15,44.507575757575765,41.5,72.72727272727273,34C100.9469696969697,26.5,115.15151515151517,-24.333333333333332,145.45454545454547,-26C175.75757575757575,-27.666666666666668,187.87878787878788,25.583333333333332,218.1818181818182,26C248.4848484848485,26.416666666666668,260.6060606060606,-23.583333333333332,290.90909090909093,-24C321.21212121212125,-24.416666666666668,333.33333333333337,24.208333333333332,363.6363636363637,24C393.939393939394,23.791666666666668,406.06060606060606,-28.125,436.3636363636364,-25C466.6666666666667,-21.875,478.7878787878788,35.25,509.0909090909091,39C539.3939393939395,42.75,551.5151515151515,-4.708333333333334,581.8181818181819,-7C612.1212121212122,-9.291666666666666,624.2424242424242,25.916666666666668,654.5454545454546,28C684.848484848485,30.083333333333332,696.969696969697,1.125,727.2727272727274,3C757.5757575757577,4.875,784.848484848485,29.916666666666664,800.0000000000001,37" transform="matrix(1,0,0,1,0,440)"></path><path d="M10,10C23.06818181818182,15,44.507575757575765,41.5,72.72727272727273,34C100.9469696969697,26.5,115.15151515151517,-24.333333333333332,145.45454545454547,-26C175.75757575757575,-27.666666666666668,187.87878787878788,25.583333333333332,218.1818181818182,26C248.4848484848485,26.416666666666668,260.6060606060606,-23.583333333333332,290.90909090909093,-24C321.21212121212125,-24.416666666666668,333.33333333333337,24.208333333333332,363.6363636363637,24C393.939393939394,23.791666666666668,406.06060606060606,-28.125,436.3636363636364,-25C466.6666666666667,-21.875,478.7878787878788,35.25,509.0909090909091,39C539.3939393939395,42.75,551.5151515151515,-4.708333333333334,581.8181818181819,-7C612.1212121212122,-9.291666666666666,624.2424242424242,25.916666666666668,654.5454545454546,28C684.848484848485,30.083333333333332,696.969696969697,1.125,727.2727272727274,3C757.5757575757577,4.875,784.848484848485,29.916666666666664,800.0000000000001,37" transform="matrix(1,0,0,1,0,420)"></path><path d="M10,10C23.06818181818182,15,44.507575757575765,41.5,72.72727272727273,34C100.9469696969697,26.5,115.15151515151517,-24.333333333333332,145.45454545454547,-26C175.75757575757575,-27.666666666666668,187.87878787878788,25.583333333333332,218.1818181818182,26C248.4848484848485,26.416666666666668,260.6060606060606,-23.583333333333332,290.90909090909093,-24C321.21212121212125,-24.416666666666668,333.33333333333337,24.208333333333332,363.6363636363637,24C393.939393939394,23.791666666666668,406.06060606060606,-28.125,436.3636363636364,-25C466.6666666666667,-21.875,478.7878787878788,35.25,509.0909090909091,39C539.3939393939395,42.75,551.5151515151515,-4.708333333333334,581.8181818181819,-7C612.1212121212122,-9.291666666666666,624.2424242424242,25.916666666666668,654.5454545454546,28C684.848484848485,30.083333333333332,696.969696969697,1.125,727.2727272727274,3C757.5757575757577,4.875,784.848484848485,29.916666666666664,800.0000000000001,37" transform="matrix(1,0,0,1,0,400)"></path><path d="M10,10C23.06818181818182,15,44.507575757575765,41.5,72.72727272727273,34C100.9469696969697,26.5,115.15151515151517,-24.333333333333332,145.45454545454547,-26C175.75757575757575,-27.666666666666668,187.87878787878788,25.583333333333332,218.1818181818182,26C248.4848484848485,26.416666666666668,260.6060606060606,-23.583333333333332,290.90909090909093,-24C321.21212121212125,-24.416666666666668,333.33333333333337,24.208333333333332,363.6363636363637,24C393.939393939394,23.791666666666668,406.06060606060606,-28.125,436.3636363636364,-25C466.6666666666667,-21.875,478.7878787878788,35.25,509.0909090909091,39C539.3939393939395,42.75,551.5151515151515,-4.708333333333334,581.8181818181819,-7C612.1212121212122,-9.291666666666666,624.2424242424242,25.916666666666668,654.5454545454546,28C684.848484848485,30.083333333333332,696.969696969697,1.125,727.2727272727274,3C757.5757575757577,4.875,784.848484848485,29.916666666666664,800.0000000000001,37" transform="matrix(1,0,0,1,0,380)"></path><path d="M10,10C23.06818181818182,15,44.507575757575765,41.5,72.72727272727273,34C100.9469696969697,26.5,115.15151515151517,-24.333333333333332,145.45454545454547,-26C175.75757575757575,-27.666666666666668,187.87878787878788,25.583333333333332,218.1818181818182,26C248.4848484848485,26.416666666666668,260.6060606060606,-23.583333333333332,290.90909090909093,-24C321.21212121212125,-24.416666666666668,333.33333333333337,24.208333333333332,363.6363636363637,24C393.939393939394,23.791666666666668,406.06060606060606,-28.125,436.3636363636364,-25C466.6666666666667,-21.875,478.7878787878788,35.25,509.0909090909091,39C539.3939393939395,42.75,551.5151515151515,-4.708333333333334,581.8181818181819,-7C612.1212121212122,-9.291666666666666,624.2424242424242,25.916666666666668,654.5454545454546,28C684.848484848485,30.083333333333332,696.969696969697,1.125,727.2727272727274,3C757.5757575757577,4.875,784.848484848485,29.916666666666664,800.0000000000001,37" transform="matrix(1,0,0,1,0,360)"></path><path d="M10,10C23.06818181818182,15,44.507575757575765,41.5,72.72727272727273,34C100.9469696969697,26.5,115.15151515151517,-24.333333333333332,145.45454545454547,-26C175.75757575757575,-27.666666666666668,187.87878787878788,25.583333333333332,218.1818181818182,26C248.4848484848485,26.416666666666668,260.6060606060606,-23.583333333333332,290.90909090909093,-24C321.21212121212125,-24.416666666666668,333.33333333333337,24.208333333333332,363.6363636363637,24C393.939393939394,23.791666666666668,406.06060606060606,-28.125,436.3636363636364,-25C466.6666666666667,-21.875,478.7878787878788,35.25,509.0909090909091,39C539.3939393939395,42.75,551.5151515151515,-4.708333333333334,581.8181818181819,-7C612.1212121212122,-9.291666666666666,624.2424242424242,25.916666666666668,654.5454545454546,28C684.848484848485,30.083333333333332,696.969696969697,1.125,727.2727272727274,3C757.5757575757577,4.875,784.848484848485,29.916666666666664,800.0000000000001,37" transform="matrix(1,0,0,1,0,340)"></path><path d="M10,10C23.06818181818182,15,44.507575757575765,41.5,72.72727272727273,34C100.9469696969697,26.5,115.15151515151517,-24.333333333333332,145.45454545454547,-26C175.75757575757575,-27.666666666666668,187.87878787878788,25.583333333333332,218.1818181818182,26C248.4848484848485,26.416666666666668,260.6060606060606,-23.583333333333332,290.90909090909093,-24C321.21212121212125,-24.416666666666668,333.33333333333337,24.208333333333332,363.6363636363637,24C393.939393939394,23.791666666666668,406.06060606060606,-28.125,436.3636363636364,-25C466.6666666666667,-21.875,478.7878787878788,35.25,509.0909090909091,39C539.3939393939395,42.75,551.5151515151515,-4.708333333333334,581.8181818181819,-7C612.1212121212122,-9.291666666666666,624.2424242424242,25.916666666666668,654.5454545454546,28C684.848484848485,30.083333333333332,696.969696969697,1.125,727.2727272727274,3C757.5757575757577,4.875,784.848484848485,29.916666666666664,800.0000000000001,37" transform="matrix(1,0,0,1,0,320)"></path><path d="M10,10C23.06818181818182,15,44.507575757575765,41.5,72.72727272727273,34C100.9469696969697,26.5,115.15151515151517,-24.333333333333332,145.45454545454547,-26C175.75757575757575,-27.666666666666668,187.87878787878788,25.583333333333332,218.1818181818182,26C248.4848484848485,26.416666666666668,260.6060606060606,-23.583333333333332,290.90909090909093,-24C321.21212121212125,-24.416666666666668,333.33333333333337,24.208333333333332,363.6363636363637,24C393.939393939394,23.791666666666668,406.06060606060606,-28.125,436.3636363636364,-25C466.6666666666667,-21.875,478.7878787878788,35.25,509.0909090909091,39C539.3939393939395,42.75,551.5151515151515,-4.708333333333334,581.8181818181819,-7C612.1212121212122,-9.291666666666666,624.2424242424242,25.916666666666668,654.5454545454546,28C684.848484848485,30.083333333333332,696.969696969697,1.125,727.2727272727274,3C757.5757575757577,4.875,784.848484848485,29.916666666666664,800.0000000000001,37" transform="matrix(1,0,0,1,0,300)"></path><path d="M10,10C23.06818181818182,15,44.507575757575765,41.5,72.72727272727273,34C100.9469696969697,26.5,115.15151515151517,-24.333333333333332,145.45454545454547,-26C175.75757575757575,-27.666666666666668,187.87878787878788,25.583333333333332,218.1818181818182,26C248.4848484848485,26.416666666666668,260.6060606060606,-23.583333333333332,290.90909090909093,-24C321.21212121212125,-24.416666666666668,333.33333333333337,24.208333333333332,363.6363636363637,24C393.939393939394,23.791666666666668,406.06060606060606,-28.125,436.3636363636364,-25C466.6666666666667,-21.875,478.7878787878788,35.25,509.0909090909091,39C539.3939393939395,42.75,551.5151515151515,-4.708333333333334,581.8181818181819,-7C612.1212121212122,-9.291666666666666,624.2424242424242,25.916666666666668,654.5454545454546,28C684.848484848485,30.083333333333332,696.969696969697,1.125,727.2727272727274,3C757.5757575757577,4.875,784.848484848485,29.916666666666664,800.0000000000001,37" transform="matrix(1,0,0,1,0,280)"></path><path d="M10,10C23.06818181818182,15,44.507575757575765,41.5,72.72727272727273,34C100.9469696969697,26.5,115.15151515151517,-24.333333333333332,145.45454545454547,-26C175.75757575757575,-27.666666666666668,187.87878787878788,25.583333333333332,218.1818181818182,26C248.4848484848485,26.416666666666668,260.6060606060606,-23.583333333333332,290.90909090909093,-24C321.21212121212125,-24.416666666666668,333.33333333333337,24.208333333333332,363.6363636363637,24C393.939393939394,23.791666666666668,406.06060606060606,-28.125,436.3636363636364,-25C466.6666666666667,-21.875,478.7878787878788,35.25,509.0909090909091,39C539.3939393939395,42.75,551.5151515151515,-4.708333333333334,581.8181818181819,-7C612.1212121212122,-9.291666666666666,624.2424242424242,25.916666666666668,654.5454545454546,28C684.848484848485,30.083333333333332,696.969696969697,1.125,727.2727272727274,3C757.5757575757577,4.875,784.848484848485,29.916666666666664,800.0000000000001,37" transform="matrix(1,0,0,1,0,260)"></path><path d="M10,10C23.06818181818182,15,44.507575757575765,41.5,72.72727272727273,34C100.9469696969697,26.5,115.15151515151517,-24.333333333333332,145.45454545454547,-26C175.75757575757575,-27.666666666666668,187.87878787878788,25.583333333333332,218.1818181818182,26C248.4848484848485,26.416666666666668,260.6060606060606,-23.583333333333332,290.90909090909093,-24C321.21212121212125,-24.416666666666668,333.33333333333337,24.208333333333332,363.6363636363637,24C393.939393939394,23.791666666666668,406.06060606060606,-28.125,436.3636363636364,-25C466.6666666666667,-21.875,478.7878787878788,35.25,509.0909090909091,39C539.3939393939395,42.75,551.5151515151515,-4.708333333333334,581.8181818181819,-7C612.1212121212122,-9.291666666666666,624.2424242424242,25.916666666666668,654.5454545454546,28C684.848484848485,30.083333333333332,696.969696969697,1.125,727.2727272727274,3C757.5757575757577,4.875,784.848484848485,29.916666666666664,800.0000000000001,37" transform="matrix(1,0,0,1,0,240)"></path><path d="M10,10C23.06818181818182,15,44.507575757575765,41.5,72.72727272727273,34C100.9469696969697,26.5,115.15151515151517,-24.333333333333332,145.45454545454547,-26C175.75757575757575,-27.666666666666668,187.87878787878788,25.583333333333332,218.1818181818182,26C248.4848484848485,26.416666666666668,260.6060606060606,-23.583333333333332,290.90909090909093,-24C321.21212121212125,-24.416666666666668,333.33333333333337,24.208333333333332,363.6363636363637,24C393.939393939394,23.791666666666668,406.06060606060606,-28.125,436.3636363636364,-25C466.6666666666667,-21.875,478.7878787878788,35.25,509.0909090909091,39C539.3939393939395,42.75,551.5151515151515,-4.708333333333334,581.8181818181819,-7C612.1212121212122,-9.291666666666666,624.2424242424242,25.916666666666668,654.5454545454546,28C684.848484848485,30.083333333333332,696.969696969697,1.125,727.2727272727274,3C757.5757575757577,4.875,784.848484848485,29.916666666666664,800.0000000000001,37" transform="matrix(1,0,0,1,0,220)"></path><path d="M10,10C23.06818181818182,15,44.507575757575765,41.5,72.72727272727273,34C100.9469696969697,26.5,115.15151515151517,-24.333333333333332,145.45454545454547,-26C175.75757575757575,-27.666666666666668,187.87878787878788,25.583333333333332,218.1818181818182,26C248.4848484848485,26.416666666666668,260.6060606060606,-23.583333333333332,290.90909090909093,-24C321.21212121212125,-24.416666666666668,333.33333333333337,24.208333333333332,363.6363636363637,24C393.939393939394,23.791666666666668,406.06060606060606,-28.125,436.3636363636364,-25C466.6666666666667,-21.875,478.7878787878788,35.25,509.0909090909091,39C539.3939393939395,42.75,551.5151515151515,-4.708333333333334,581.8181818181819,-7C612.1212121212122,-9.291666666666666,624.2424242424242,25.916666666666668,654.5454545454546,28C684.848484848485,30.083333333333332,696.969696969697,1.125,727.2727272727274,3C757.5757575757577,4.875,784.848484848485,29.916666666666664,800.0000000000001,37" transform="matrix(1,0,0,1,0,200)"></path><path d="M10,10C23.06818181818182,15,44.507575757575765,41.5,72.72727272727273,34C100.9469696969697,26.5,115.15151515151517,-24.333333333333332,145.45454545454547,-26C175.75757575757575,-27.666666666666668,187.87878787878788,25.583333333333332,218.1818181818182,26C248.4848484848485,26.416666666666668,260.6060606060606,-23.583333333333332,290.90909090909093,-24C321.21212121212125,-24.416666666666668,333.33333333333337,24.208333333333332,363.6363636363637,24C393.939393939394,23.791666666666668,406.06060606060606,-28.125,436.3636363636364,-25C466.6666666666667,-21.875,478.7878787878788,35.25,509.0909090909091,39C539.3939393939395,42.75,551.5151515151515,-4.708333333333334,581.8181818181819,-7C612.1212121212122,-9.291666666666666,624.2424242424242,25.916666666666668,654.5454545454546,28C684.848484848485,30.083333333333332,696.969696969697,1.125,727.2727272727274,3C757.5757575757577,4.875,784.848484848485,29.916666666666664,800.0000000000001,37" transform="matrix(1,0,0,1,0,180)"></path><path d="M10,10C23.06818181818182,15,44.507575757575765,41.5,72.72727272727273,34C100.9469696969697,26.5,115.15151515151517,-24.333333333333332,145.45454545454547,-26C175.75757575757575,-27.666666666666668,187.87878787878788,25.583333333333332,218.1818181818182,26C248.4848484848485,26.416666666666668,260.6060606060606,-23.583333333333332,290.90909090909093,-24C321.21212121212125,-24.416666666666668,333.33333333333337,24.208333333333332,363.6363636363637,24C393.939393939394,23.791666666666668,406.06060606060606,-28.125,436.3636363636364,-25C466.6666666666667,-21.875,478.7878787878788,35.25,509.0909090909091,39C539.3939393939395,42.75,551.5151515151515,-4.708333333333334,581.8181818181819,-7C612.1212121212122,-9.291666666666666,624.2424242424242,25.916666666666668,654.5454545454546,28C684.848484848485,30.083333333333332,696.969696969697,1.125,727.2727272727274,3C757.5757575757577,4.875,784.848484848485,29.916666666666664,800.0000000000001,37" transform="matrix(1,0,0,1,0,160)"></path><path d="M10,10C23.06818181818182,15,44.507575757575765,41.5,72.72727272727273,34C100.9469696969697,26.5,115.15151515151517,-24.333333333333332,145.45454545454547,-26C175.75757575757575,-27.666666666666668,187.87878787878788,25.583333333333332,218.1818181818182,26C248.4848484848485,26.416666666666668,260.6060606060606,-23.583333333333332,290.90909090909093,-24C321.21212121212125,-24.416666666666668,333.33333333333337,24.208333333333332,363.6363636363637,24C393.939393939394,23.791666666666668,406.06060606060606,-28.125,436.3636363636364,-25C466.6666666666667,-21.875,478.7878787878788,35.25,509.0909090909091,39C539.3939393939395,42.75,551.5151515151515,-4.708333333333334,581.8181818181819,-7C612.1212121212122,-9.291666666666666,624.2424242424242,25.916666666666668,654.5454545454546,28C684.848484848485,30.083333333333332,696.969696969697,1.125,727.2727272727274,3C757.5757575757577,4.875,784.848484848485,29.916666666666664,800.0000000000001,37" transform="matrix(1,0,0,1,0,140)"></path><path d="M10,10C23.06818181818182,15,44.507575757575765,41.5,72.72727272727273,34C100.9469696969697,26.5,115.15151515151517,-24.333333333333332,145.45454545454547,-26C175.75757575757575,-27.666666666666668,187.87878787878788,25.583333333333332,218.1818181818182,26C248.4848484848485,26.416666666666668,260.6060606060606,-23.583333333333332,290.90909090909093,-24C321.21212121212125,-24.416666666666668,333.33333333333337,24.208333333333332,363.6363636363637,24C393.939393939394,23.791666666666668,406.06060606060606,-28.125,436.3636363636364,-25C466.6666666666667,-21.875,478.7878787878788,35.25,509.0909090909091,39C539.3939393939395,42.75,551.5151515151515,-4.708333333333334,581.8181818181819,-7C612.1212121212122,-9.291666666666666,624.2424242424242,25.916666666666668,654.5454545454546,28C684.848484848485,30.083333333333332,696.969696969697,1.125,727.2727272727274,3C757.5757575757577,4.875,784.848484848485,29.916666666666664,800.0000000000001,37" transform="matrix(1,0,0,1,0,120)"></path><path d="M10,10C23.06818181818182,15,44.507575757575765,41.5,72.72727272727273,34C100.9469696969697,26.5,115.15151515151517,-24.333333333333332,145.45454545454547,-26C175.75757575757575,-27.666666666666668,187.87878787878788,25.583333333333332,218.1818181818182,26C248.4848484848485,26.416666666666668,260.6060606060606,-23.583333333333332,290.90909090909093,-24C321.21212121212125,-24.416666666666668,333.33333333333337,24.208333333333332,363.6363636363637,24C393.939393939394,23.791666666666668,406.06060606060606,-28.125,436.3636363636364,-25C466.6666666666667,-21.875,478.7878787878788,35.25,509.0909090909091,39C539.3939393939395,42.75,551.5151515151515,-4.708333333333334,581.8181818181819,-7C612.1212121212122,-9.291666666666666,624.2424242424242,25.916666666666668,654.5454545454546,28C684.848484848485,30.083333333333332,696.969696969697,1.125,727.2727272727274,3C757.5757575757577,4.875,784.848484848485,29.916666666666664,800.0000000000001,37" transform="matrix(1,0,0,1,0,100)"></path><path d="M10,10C23.06818181818182,15,44.507575757575765,41.5,72.72727272727273,34C100.9469696969697,26.5,115.15151515151517,-24.333333333333332,145.45454545454547,-26C175.75757575757575,-27.666666666666668,187.87878787878788,25.583333333333332,218.1818181818182,26C248.4848484848485,26.416666666666668,260.6060606060606,-23.583333333333332,290.90909090909093,-24C321.21212121212125,-24.416666666666668,333.33333333333337,24.208333333333332,363.6363636363637,24C393.939393939394,23.791666666666668,406.06060606060606,-28.125,436.3636363636364,-25C466.6666666666667,-21.875,478.7878787878788,35.25,509.0909090909091,39C539.3939393939395,42.75,551.5151515151515,-4.708333333333334,581.8181818181819,-7C612.1212121212122,-9.291666666666666,624.2424242424242,25.916666666666668,654.5454545454546,28C684.848484848485,30.083333333333332,696.969696969697,1.125,727.2727272727274,3C757.5757575757577,4.875,784.848484848485,29.916666666666664,800.0000000000001,37" transform="matrix(1,0,0,1,0,80)"></path><path d="M10,10C23.06818181818182,15,44.507575757575765,41.5,72.72727272727273,34C100.9469696969697,26.5,115.15151515151517,-24.333333333333332,145.45454545454547,-26C175.75757575757575,-27.666666666666668,187.87878787878788,25.583333333333332,218.1818181818182,26C248.4848484848485,26.416666666666668,260.6060606060606,-23.583333333333332,290.90909090909093,-24C321.21212121212125,-24.416666666666668,333.33333333333337,24.208333333333332,363.6363636363637,24C393.939393939394,23.791666666666668,406.06060606060606,-28.125,436.3636363636364,-25C466.6666666666667,-21.875,478.7878787878788,35.25,509.0909090909091,39C539.3939393939395,42.75,551.5151515151515,-4.708333333333334,581.8181818181819,-7C612.1212121212122,-9.291666666666666,624.2424242424242,25.916666666666668,654.5454545454546,28C684.848484848485,30.083333333333332,696.969696969697,1.125,727.2727272727274,3C757.5757575757577,4.875,784.848484848485,29.916666666666664,800.0000000000001,37" transform="matrix(1,0,0,1,0,60)"></path><path d="M10,10C23.06818181818182,15,44.507575757575765,41.5,72.72727272727273,34C100.9469696969697,26.5,115.15151515151517,-24.333333333333332,145.45454545454547,-26C175.75757575757575,-27.666666666666668,187.87878787878788,25.583333333333332,218.1818181818182,26C248.4848484848485,26.416666666666668,260.6060606060606,-23.583333333333332,290.90909090909093,-24C321.21212121212125,-24.416666666666668,333.33333333333337,24.208333333333332,363.6363636363637,24C393.939393939394,23.791666666666668,406.06060606060606,-28.125,436.3636363636364,-25C466.6666666666667,-21.875,478.7878787878788,35.25,509.0909090909091,39C539.3939393939395,42.75,551.5151515151515,-4.708333333333334,581.8181818181819,-7C612.1212121212122,-9.291666666666666,624.2424242424242,25.916666666666668,654.5454545454546,28C684.848484848485,30.083333333333332,696.969696969697,1.125,727.2727272727274,3C757.5757575757577,4.875,784.848484848485,29.916666666666664,800.0000000000001,37" transform="matrix(1,0,0,1,0,40)"></path><path d="M10,10C23.06818181818182,15,44.507575757575765,41.5,72.72727272727273,34C100.9469696969697,26.5,115.15151515151517,-24.333333333333332,145.45454545454547,-26C175.75757575757575,-27.666666666666668,187.87878787878788,25.583333333333332,218.1818181818182,26C248.4848484848485,26.416666666666668,260.6060606060606,-23.583333333333332,290.90909090909093,-24C321.21212121212125,-24.416666666666668,333.33333333333337,24.208333333333332,363.6363636363637,24C393.939393939394,23.791666666666668,406.06060606060606,-28.125,436.3636363636364,-25C466.6666666666667,-21.875,478.7878787878788,35.25,509.0909090909091,39C539.3939393939395,42.75,551.5151515151515,-4.708333333333334,581.8181818181819,-7C612.1212121212122,-9.291666666666666,624.2424242424242,25.916666666666668,654.5454545454546,28C684.848484848485,30.083333333333332,696.969696969697,1.125,727.2727272727274,3C757.5757575757577,4.875,784.848484848485,29.916666666666664,800.0000000000001,37" transform="matrix(1,0,0,1,0,20)"></path></g></svg>