<svg xmlns="http://www.w3.org/2000/svg" version="1.1" xmlns:xlink="http://www.w3.org/1999/xlink" xmlns:svgjs="http://svgjs.dev/svgjs" viewBox="0 0 1422 800"><defs><filter id="uuunion-blur" x="-100%" y="-100%" width="400%" height="400%" color-interpolation-filters="sRGB">
        <feGaussianBlur in="SourceGraphic" stdDeviation="0 0" result="blur"></feGaussianBlur>
        <feDropShadow stdDeviation="43.07692307692307" in="blur" dx="35" dy="35" flood-color="hsl(224, 78%, 16%)" flood-opacity="0.44" x="0%" y="0%" width="100%" height="100%"></feDropShadow>
      </filter><filter id="uuunion-blur2" x="-100%" y="-100%" width="400%" height="400%" color-interpolation-filters="sRGB">
        <feGaussianBlur in="SourceGraphic" stdDeviation="0 0" result="blur"></feGaussianBlur>
        <feDropShadow stdDeviation="43.07692307692307" in="blur" dx="-35" dy="-35" flood-color="hsl(224, 78%, 16%)" flood-opacity="0.44" x="0%" y="0%" width="100%" height="100%"></feDropShadow>
      </filter><linearGradient gradientTransform="rotate(0, 0.5, 0.5)" x1="50%" y1="0%" x2="50%" y2="100%" id="uuunion-grad"><stop stop-color="hsl(205, 99%, 67%)" offset="10%"></stop><stop stop-color="hsl(224, 78%, 16%)" offset="90%"></stop></linearGradient><linearGradient gradientTransform="rotate(135, 0.5, 0.5)" x1="50%" y1="0%" x2="50%" y2="100%" id="uuunion-grad2"><stop stop-color="hsl(205, 99%, 67%)" offset="25%"></stop><stop stop-color="hsl(224, 78%, 16%)" offset="100%"></stop></linearGradient><linearGradient gradientTransform="rotate(333, 0.5, 0.5)" x1="50%" y1="0%" x2="50%" y2="100%" id="uuunion-grad3"><stop stop-color="hsl(205, 99%, 67%)" offset="0%"></stop><stop stop-color="hsl(224, 78%, 16%)" offset="75%"></stop></linearGradient></defs><path d="M-122.79 -86.81Q-110.05 -87.19 -97.32 -86.82 -84.59 -85.73 -71.86 -84.04 -59.13 -81.93 -46.39 -79.61 -33.66 -77.33 -20.93 -75.33 -8.2 -73.83 4.52 -72.96 17.26 -72.84 29.99 -73.46 42.72 -74.77 55.45 -76.63 68.18 -78.84 80.91 -81.17 93.65 -83.38 106.38 -85.23 119.11 -86.53 131.84 -87.15 144.57 -87.02 157.31 -86.16 170.04 -84.64 182.77 -82.64 195.5 -80.37 208.23 -78.05 220.96 -75.94 233.7 -74.25 246.43 -73.16 259.16 -72.8 271.89 -73.18 284.62 -74.28 297.36 -75.98 310.09 -78.1 322.82 -80.41 335.55 -82.69 348.28 -84.68 361.02 -86.18 373.75 -87.03 386.48 -87.15 399.21 -86.51 411.94 -85.2 424.67 -83.33 437.41 -81.12 450.14 -78.79 462.87 -76.59 475.6 -74.74 488.33 -73.44 501.07 -72.83 513.8 -72.97 526.53 -73.85 539.26 -75.37 551.99 -77.38 564.73 -79.66 577.46 -81.97 590.19 -84.08 602.92 -85.76 615.65 -86.84 628.39 -87.19 641.12 -86.8 653.85 -85.69 666.58 -83.99 679.31 -81.86 692.04 -79.54 704.78 -77.27 717.51 -75.29 730.24 -73.79 742.97 -72.95 755.7 -72.84 768.44 -73.49 781.17 -74.82 793.9 -76.69 806.63 -78.9 819.36 -81.23 832.1 -83.43 844.83 -85.27 857.56 -86.56 870.29 -87.16 883.02 -87.01 895.76 -86.12 908.49 -84.59 921.22 -82.58 933.95 -80.3 946.68 -77.99 959.41 -75.88 972.15 -74.21 984.88 -73.14 997.61 -72.8 1010.34 -73.2 1023.07 -74.32 1035.81 -76.03 1048.54 -78.16 1061.27 -80.48 1074 -82.75 1086.73 -84.73 1099.47 -86.21 1112.2 -87.05 1124.93 -87.14 1137.66 -86.49 1150.39 -85.15 1163.13 -83.28 1175.86 -81.06 1188.59 -78.73 1201.32 -76.53 1214.05 -74.69 1226.79 -73.42 1239.52 -72.83 1252.25 -72.99 1264.98 -73.88 1277.71 -75.42 1290.45 -77.44 1303.18 -79.72 1315.91 -82.03 1328.64 -84.13 1341.37 -85.8 1354.11 -86.86 1366.84 -87.19 1379.57 -86.78 1392.3 -85.65 1405.03 -83.93 1417.77 -81.8 1430.5 -79.48 1443.23 -77.21 1455.96 -75.24 1468.69 -73.76 1481.43 -72.94 1494.16 -72.85 1506.89 -73.52 1512.1 -58.05 1520.55 -42.57 1531.72 -27.1 1544.9 -11.63 1559.29 3.83 1573.98 19.31 1588.06 34.78 1600.65 50.25 1610.98 65.72 1618.41 81.19 1622.46 96.67 1622.88 112.14 1619.66 127.61 1612.99 143.08 1603.29 158.56 1591.16 174.03 1577.35 189.5 1562.72 204.97 1548.18 220.44 1534.64 235.92 1522.94 251.39 1513.8 266.86 1507.79 282.33 1505.3 297.81 1506.46 313.28 1511.21 328.75 1519.26 344.22 1530.1 359.69 1543.07 375.17 1557.34 390.64 1572.04 406.11 1586.26 421.58 1599.1 437.06 1609.77 452.53 1617.61 468 1622.12 483.47 1623.04 498.94 1620.3 514.42 1614.07 529.89 1604.73 545.36 1592.88 560.83 1579.24 576.31 1564.67 591.78 1550.07 607.25 1536.35 622.72 1524.36 638.2 1514.84 653.67 1508.4 669.14 1505.42 684.61 1506.1 700.08 1510.39 715.56 1518.02 731.03 1528.53 746.5 1541.25 761.97 1555.4 777.45 1570.1 792.92 1584.43 808.39 1597.5 823.86 1608.5 839.33 1616.75 854.81 1621.73 870.28 1623.13 885.75 1620.87 901.22 1615.08 916.7 1601.22 920.47 1587.35 920 1573.49 915.33 1559.63 906.97 1545.76 895.78 1531.9 882.93 1518.04 869.78 1504.17 857.69 1490.31 847.95 1476.45 841.56 1462.58 839.2 1448.72 841.12 1434.86 847.11 1420.99 856.54 1407.13 868.44 1393.27 881.54 1379.4 894.49 1365.54 905.91 1351.68 914.62 1337.81 919.7 1323.95 920.62 1310.09 917.28 1296.22 910.04 1282.36 899.64 1268.5 887.19 1254.63 873.98 1240.77 861.41 1226.91 850.78 1213.04 843.21 1199.18 839.5 1185.32 840.03 1171.45 844.75 1157.59 853.16 1143.73 864.39 1129.86 877.25 1116 890.4 1102.14 902.45 1088.27 912.16 1074.41 918.49 1060.55 920.79 1046.68 918.82 1032.82 912.77 1018.96 903.29 1005.09 891.37 991.23 878.26 977.37 865.33 963.5 853.93 949.64 845.27 935.78 840.25 921.91 839.39 908.05 842.79 894.19 850.08 880.32 860.51 866.46 872.98 852.6 886.19 838.73 898.75 824.87 909.34 811.01 916.86 797.14 920.51 783.28 919.92 769.42 915.14 755.55 906.68 741.69 895.43 727.83 882.55 713.96 869.41 700.1 857.38 686.24 847.72 672.37 841.44 658.51 839.2 644.65 841.23 630.78 847.33 616.92 856.85 603.06 868.8 589.19 881.92 575.33 894.84 561.47 906.2 547.6 914.82 533.74 919.78 519.88 920.58 506.01 917.13 492.15 909.78 478.29 899.31 464.42 886.82 450.56 873.61 436.7 861.07 422.83 850.52 408.97 843.05 395.11 839.46 381.25 840.11 367.38 844.94 353.52 853.45 339.66 864.73 325.79 877.62 311.93 890.76 298.07 902.77 284.2 912.39 270.34 918.61 256.48 920.79 242.61 918.7 228.75 912.55 214.89 902.98 201.02 891.01 187.16 877.89 173.3 864.98 159.43 853.65 145.57 845.08 131.71 840.16 117.84 839.43 103.98 842.94 90.12 850.34 76.25 860.84 62.39 873.35 48.53 886.56 34.66 899.08 20.8 909.6 6.94 917.02 -6.92 920.55 -20.78 919.84 -34.64 914.95 -48.51 906.4 -62.37 895.08 -76.23 882.18 -90.1 869.05 -103.96 857.07 -117.82 847.49 -131.69 841.32 -145.55 839.2 -159.41 841.35 -161.37 826.85 -162.14 812.34 -161.66 797.84 -159.98 783.34 -157.18 768.84 -153.46 754.33 -149.03 739.83 -144.18 725.33 -139.21 710.83 -134.42 696.32 -130.11 681.82 -126.55 667.32 -123.97 652.81 -122.52 638.31 -122.29 623.81 -123.29 609.31 -125.48 594.8 -128.7 580.3 -132.76 565.8 -137.4 551.3 -142.35 536.79 -147.28 522.29 -151.9 507.79 -155.91 493.28 -159.07 478.78 -161.18 464.28 -162.11 449.78 -161.8 435.27 -160.27 420.77 -157.61 406.27 -154 391.77 -149.65 377.26 -144.84 362.76 -139.86 348.26 -135.03 333.75 -130.64 319.25 -126.97 304.75 -124.25 290.25 -122.64 275.74 -122.25 261.24 -123.09 246.74 -125.12 232.24 -128.22 217.73 -132.18 203.23 -136.76 188.73 -141.68 174.22 -146.64 159.72 -151.31 145.22 -155.42 130.72 -158.71 116.21 -160.96 101.71 -162.05 87.21 -161.91 72.71 -160.54 58.2 -158.02 43.7 -154.53 29.2 -150.26 14.69 -145.5 0.19 -140.52 -14.3 -135.65 -28.8 -131.19 -43.31 -127.41 -57.81 -124.55 -72.31 -122.79 -86.81" fill="url(#uuunion-grad)"></path><path d="M-122.79 -86.81Q-124.56 -72.31 -127.42 -57.81 -131.2 -43.31 -135.66 -28.8 -140.53 -14.3 -145.51 0.19 -150.27 14.7 -154.54 29.2 -158.04 43.7 -160.55 58.2 -161.92 72.71 -162.06 87.21 -160.97 101.71 -158.72 116.21 -155.43 130.72 -151.32 145.22 -146.65 159.72 -141.69 174.23 -136.77 188.73 -132.19 203.23 -128.23 217.73 -125.13 232.24 -123.1 246.74 -122.26 261.24 -122.65 275.75 -124.26 290.25 -126.98 304.75 -130.65 319.25 -135.04 333.76 -139.87 348.26 -142.74 369.45 -131.58 376.13 -122.54 377.24 -113.5 379.41 -104.46 382.55 -95.42 386.51 -86.37 391.09 -77.33 396.09 -68.29 401.28 -59.25 406.4 -50.21 411.23 -41.17 415.52 -32.13 419.1 -23.09 421.77 -6 423.84 -2.98 423.97 8.92 419.55 20.79 413.51 32.62 406.06 44.4 397.53 56.14 388.32 67.82 378.89 79.46 369.68 91.04 361.14 102.57 353.66 114.04 347.54 125.46 342.98 136.82 340.08 148.12 338.8 159.37 338.99 170.56 340.4 181.7 342.69 192.78 345.45 203.81 348.26 214.78 350.69 225.71 352.33 236.6 352.84 247.43 351.99 258.23 349.6 268.98 345.66 279.7 340.22 290.38 333.48 301.04 325.71 311.67 317.25 322.27 308.51 332.86 299.89 343.43 291.78 353.99 284.55 364.54 278.48 375.09 273.78 385.64 270.54 396.2 268.75 406.76 268.31 417.34 269 427.94 270.54 438.56 272.57 449.21 274.72 459.89 276.61 470.6 277.87 481.35 278.2 492.14 277.34 502.98 275.17 513.86 271.61 524.8 266.71 535.79 260.63 546.83 253.58 557.94 245.87 569.1 237.83 580.33 229.83 591.62 222.21 602.98 215.3 614.41 209.37 625.91 204.6 637.47 201.1 649.1 198.88 660.8 197.87 672.57 197.88 684.4 198.69 696.3 200 708.26 201.47 720.29 202.78 732.38 203.61 744.52 203.67 756.72 202.74 768.97 200.68 781.28 197.43 793.62 193.01 806.01 187.53 818.44 181.17 830.9 174.18 843.39 166.86 855.9 159.5 868.44 152.41 880.98 145.89 893.54 140.16 906.1 135.41 918.66 131.73 931.21 129.16 943.74 127.64 956.26 127.03 968.75 127.14 981.21 127.73 993.63 128.51 1006.01 129.21 1018.34 129.55 1030.61 129.28 1042.82 128.2 1054.97 126.18 1067.05 123.15 1079.04 119.13 1090.96 114.19 1102.79 108.48 1114.53 102.19 1126.17 95.57 1137.71 88.88 1149.14 82.37 1160.47 76.29 1171.68 70.84 1182.78 66.18 1193.77 62.42 1204.63 59.57 1215.37 57.61 1225.99 56.43 1236.48 55.88 1246.85 55.76 1257.09 55.85 1267.2 55.91 1277.19 55.72 1287.05 55.05 1296.8 53.75 1306.41 51.69 1315.92 48.81 1325.3 45.1 1334.57 40.64 1343.73 35.52 1352.78 29.91 1361.73 23.99 1370.59 17.97 1379.35 12.07 1388.03 6.48 1396.63 1.38 1405.15 -3.09 1413.6 -6.87 1422 -9.92 1406.93 -26.81 1393.14 -43.7 1381.79 -60.59 1373.83 -77.49 1369.94 -94.38 1370.45 -111.27 1373.76 -136.59 1360.32 -144.53 1348.41 -143.64 1336.51 -142.42 1324.61 -140.98 1312.71 -139.46 1300.81 -137.98 1288.91 -136.69 1277.01 -135.69 1265.11 -135.07 1253.21 -134.9 1241.31 -135.18 1229.41 -135.9 1217.51 -136.98 1205.61 -138.33 1193.71 -139.83 1181.8 -141.34 1169.9 -142.74 1158 -143.89 1146.1 -144.69 1134.2 -145.07 1122.3 -145 1110.4 -144.47 1098.5 -143.55 1086.6 -142.31 1074.7 -140.87 1062.8 -139.34 1050.9 -137.87 1039 -136.6 1027.09 -135.62 1015.19 -135.04 1003.29 -134.9 991.39 -135.22 979.49 -135.97 967.59 -137.07 955.69 -138.44 943.79 -139.95 931.89 -141.46 919.99 -142.84 908.09 -143.96 896.19 -144.73 884.29 -145.08 872.39 -144.97 860.48 -144.42 848.58 -143.47 836.68 -142.21 824.78 -140.75 812.88 -139.22 800.98 -137.77 789.08 -136.51 777.18 -135.56 765.28 -135.02 753.38 -134.91 741.48 -135.26 729.58 -136.04 717.68 -137.17 705.78 -138.55 693.87 -140.06 681.97 -141.57 670.07 -142.93 658.17 -144.04 646.27 -144.78 634.37 -145.09 622.47 -144.94 610.57 -144.36 598.67 -143.38 586.77 -142.1 574.87 -140.63 562.97 -139.11 551.07 -137.66 539.16 -136.42 527.26 -135.51 515.36 -134.99 503.46 -134.92 491.56 -135.31 479.66 -136.12 467.76 -137.27 455.86 -138.67 443.96 -140.18 432.06 -141.68 420.16 -143.03 408.26 -144.11 396.36 -144.82 384.46 -145.09 372.55 -144.91 360.65 -144.29 348.75 -143.29 336.85 -141.99 324.95 -140.51 313.05 -138.99 301.15 -137.56 289.25 -136.34 277.35 -135.45 265.45 -134.97 253.55 -134.94 241.65 -135.36 229.75 -136.19 217.84 -137.37 205.94 -138.78 194.04 -140.3 182.14 -141.79 170.24 -143.12 158.34 -144.18 146.44 -144.85 134.54 -145.09 122.64 -144.88 110.74 -144.23 98.84 -143.2 86.94 -141.88 75.04 -140.4 63.14 -138.87 51.23 -137.45 39.33 -136.26 27.43 -135.4 15.53 -134.95 3.63 -134.95 -8.26 -135.41 -20.16 -136.27 -32.06 -137.47 -43.96 -138.9 -55.86 -140.42 -67.76 -141.9 -79.66 -143.22 -91.56 -144.24 -103.47 -144.89 -115.37 -145.09 -130.28 -137.33 -128.55 -115.48 -125.05 -101.15 -122.79 -86.81" fill="url(#uuunion-grad2)" filter="url(#uuunion-blur)"></path><path d="M1379.39 298.96Q1387.94 300.02 1396.5 302.02 1405.05 304.86 1413.6 308.41 1422.16 312.5 1430.71 316.94 1439.26 321.52 1447.82 326.03 1456.37 330.26 1464.92 334.01 1482.03 338.94 1499.13 341.19 1507.69 340.61 1516.24 339.07 1528.13 357.12 1543.07 375.17 1559.79 393.22 1576.88 411.27 1592.9 429.32 1606.5 447.37 1616.52 465.42 1622.12 483.47 1622.83 501.52 1618.59 519.57 1609.75 537.63 1597.07 555.68 1581.61 573.73 1564.67 591.78 1547.7 609.83 1532.12 627.88 1519.25 645.93 1510.17 663.98 1505.66 682.03 1506.1 700.08 1511.44 718.14 1521.23 736.19 1534.66 754.24 1550.58 772.29 1567.65 790.34 1584.43 808.39 1599.5 826.44 1611.59 844.49 1619.67 862.54 1623.07 880.59 1621.5 898.64 1615.08 916.7 1602.37 920.31 1589.65 920.37 1576.93 916.86 1564.22 910.1 1551.5 900.68 1538.78 889.43 1526.07 877.35 1513.35 865.5 1500.64 854.94 1487.92 846.58 1475.2 841.18 1462.49 839.2 1449.77 840.82 1437.05 845.91 1424.34 854 1411.62 864.39 1398.91 876.15 1386.19 888.26 1373.47 899.63 1360.76 909.28 1348.04 916.33 1335.32 920.18 1322.61 920.48 1309.89 917.21 1297.18 910.64 1284.46 901.38 1271.74 890.22 1259.03 878.17 1246.31 866.27 1233.59 855.59 1220.88 847.06 1208.16 841.44 1195.45 839.22 1182.73 840.6 1170.01 845.47 1157.3 853.38 1144.58 863.64 1131.86 875.34 1119.15 887.46 1106.43 898.92 1093.72 908.7 1081 915.95 1068.28 920.03 1055.57 920.57 1042.85 917.53 1030.13 911.18 1017.42 902.07 1004.7 891.01 991.99 878.98 979.27 867.04 966.55 856.24 953.84 847.55 941.12 841.71 928.41 839.26 915.69 840.4 902.97 845.04 890.26 852.76 877.54 862.89 864.82 874.53 852.11 886.65 839.39 898.19 826.68 908.12 813.96 915.56 801.24 919.87 788.53 920.65 775.81 917.84 763.09 911.7 750.38 902.75 737.66 891.8 724.95 879.8 712.23 867.82 699.51 856.91 686.8 848.05 674.08 842 661.36 839.31 648.65 840.21 635.93 844.62 623.22 852.16 610.5 862.16 597.78 873.72 585.07 885.85 572.35 897.45 559.63 907.52 546.92 915.15 534.2 919.68 521.49 920.71 508.77 918.14 496.05 912.2 483.34 903.42 470.62 892.57 457.9 880.61 445.19 868.6 432.47 857.59 419.76 848.56 407.04 842.31 394.32 839.38 381.61 840.04 368.89 844.22 356.17 851.57 343.46 861.42 330.74 872.92 318.03 885.04 305.31 896.71 292.59 906.91 279.88 914.73 267.16 919.49 254.44 920.75 241.73 918.42 229.01 912.7 216.3 904.09 203.58 893.35 190.86 881.43 178.15 869.38 165.43 858.28 152.72 849.09 140 842.63 127.28 839.46 114.57 839.88 101.85 843.84 89.13 850.99 76.42 860.7 63.7 872.12 50.99 884.23 38.27 895.97 25.55 906.29 12.84 914.3 -6.71 914.85 -14.17 900.08 -14.42 889.73 -14.3 879.38 -13.81 869.03 -12.97 858.68 -10.79 843.16 -9.28 838 4.62 829.78 18.51 818.29 32.38 804.03 46.2 787.77 59.94 770.46 73.59 753.12 87.14 736.77 100.58 722.33 113.88 710.53 127.06 701.84 140.09 696.45 152.99 694.24 165.75 694.81 178.37 697.48 190.86 701.43 203.23 705.68 215.49 709.29 227.66 711.34 239.74 711.1 251.76 708.04 263.72 701.91 275.66 692.74 287.58 680.83 299.51 666.75 311.46 651.23 323.46 635.14 335.52 619.41 347.65 604.89 359.87 592.32 372.2 582.27 384.64 575.04 397.21 570.68 409.91 568.99 422.74 569.5 435.72 571.56 448.82 574.39 462.06 577.15 475.42 579.01 488.9 579.23 502.48 577.25 516.15 572.71 529.9 565.49 543.69 555.72 557.53 543.76 571.37 530.17 585.2 515.64 599 500.95 612.74 486.88 626.4 474.14 639.95 463.29 653.37 454.74 666.64 448.65 679.74 444.97 692.64 443.43 705.34 443.56 717.81 444.74 730.05 446.28 742.04 447.45 753.79 447.58 765.28 446.11 776.52 442.62 787.52 436.9 798.29 428.93 808.83 418.92 818.25 413.64 827.65 407.55 837.03 400.92 846.38 394.04 855.72 387.24 865.03 380.82 874.33 375.07 883.6 370.25 892.85 366.53 902.08 364.07 911.29 362.92 920.48 363.07 929.65 364.44 938.8 366.88 947.93 370.17 957.04 374.07 966.13 378.28 975.2 382.49 984.25 386.41 993.29 389.73 1002.3 392.22 1011.3 393.66 1020.28 393.91 1029.25 392.89 1038.19 390.59 1047.12 387.07 1056.04 382.47 1064.93 376.98 1073.82 370.83 1082.68 364.31 1091.54 357.7 1100.38 351.32 1109.2 345.44 1118.02 340.32 1126.82 336.17 1135.61 333.15 1144.39 331.36 1153.15 330.83 1161.91 331.5 1170.66 333.26 1179.4 335.95 1188.13 339.33 1196.85 343.16 1205.56 347.13 1214.27 350.97 1222.97 354.38 1231.67 357.11 1240.37 358.94 1257.74 358.67 1275.1 354.81 1283.78 350.88 1292.46 346 1301.14 340.39 1309.82 334.28 1318.51 327.95 1327.19 321.69 1335.88 315.77 1344.57 310.46 1353.27 305.97 1361.97 302.49 1370.68 300.13 1379.39 298.96" fill="url(#uuunion-grad3)" filter="url(#uuunion-blur2)"></path></svg>